<svg width="590" height="425" viewBox="0 0 590 425" fill="none" xmlns="http://www.w3.org/2000/svg">
<g id="undraw_by_my_car_ttge 1">
<g clip-path="url(#clip0)">
<g id="other">
<path id="Vector" opacity="0.1" d="M93.1597 138.138C114.051 164.409 106.177 202.989 93.1677 233.913C88.8005 244.267 83.882 255.196 85.7842 266.302C88.1309 279.839 100.281 289.684 113.01 294.87C136.214 304.322 163.92 301.894 185.13 288.554C203.466 277.04 216.537 258.362 235.185 247.346C266.393 228.915 306.275 235.605 340.318 248.007C364.411 256.782 390.747 268.219 414.582 258.797C431.364 252.161 442.905 236.172 449.148 219.253C452.156 211.058 454.338 202.25 460.141 195.753C463.59 191.89 468.106 189.144 472.738 186.819C515.003 165.602 568.57 176.562 609.606 153.058C637.321 137.181 654.968 107.42 662.686 76.4462C670.404 45.4721 669.329 13.0361 667.173 -18.8152C665.638 -41.45 662.965 -65.6074 648.427 -83.0156C633.021 -101.424 606.71 -108.159 582.98 -104.518C559.251 -100.876 537.782 -88.2431 518.913 -73.3969C495.335 -54.8381 473.498 -31.7676 444.469 -24.145C424.702 -18.9553 403.865 -21.6523 383.452 -22.486C349.256 -23.9063 315.179 -20.1631 281.243 -16.0591C248.77 -12.1342 216.07 -7.84008 185.171 2.90386C163.306 10.4929 145.814 24.1583 125.177 33.745C111.726 39.9976 97.0298 41.751 84.3096 49.72C68.6547 59.4911 54.3036 76.4413 58.4333 96.1499C62.3637 114.886 82.0709 124.191 93.1597 138.138Z" fill="#6C63FF"/>
<g id="Group" opacity="0.5">
<path id="Vector_2" opacity="0.5" d="M470.644 -33.3552C467.725 -31.6245 464.416 -28.2564 464.175 -21.3149C463.675 -7.70998 474.685 -1.36153 475.226 12.4907C475.349 16.1793 474.698 19.8529 473.317 23.2758C471.042 28.9551 467.805 32.2103 464.975 36.5114C461.384 41.999 459.455 48.4066 459.421 54.9631C459.396 62.1964 461.095 69.3311 464.378 75.7768C467.186 81.1492 470.516 84.7215 473.681 88.8489C477.659 94.1313 481.156 99.7593 484.129 105.665C485.667 108.512 486.901 111.512 487.809 114.617C488.896 118.531 489.396 122.962 489.894 127.333L494.262 166.019C494.843 171.17 495.438 176.405 496.644 181.137C498.027 186.604 500.126 191.063 502.189 195.41C506.653 204.785 511.321 214.503 516.989 218.585C522.656 222.667 529.496 218.958 531.229 207.161C532.879 195.952 529.45 182.427 530.411 170.643C531.92 152.059 543.158 146.706 545.488 128.764C547.745 111.549 540.817 92.9261 539.402 74.3495C538.372 61.0288 540.215 48.1522 539.825 34.8266C539.253 15.6327 533.945 -3.06157 527.006 -16.1162C520.066 -29.1708 511.63 -37.1801 503.176 -42.7191C499.592 -45.0665 495.907 -47.0238 492.34 -46.3841C488.548 -45.6995 486.546 -40.1589 483.214 -37.8153C479.349 -35.1042 474.637 -35.7023 470.644 -33.3552Z" fill="#6C63FF"/>
<path id="Vector_3" opacity="0.5" d="M489.205 -44.6244C489.205 -44.6244 524.848 118.079 523.121 219.952" stroke="#535461" stroke-width="2" stroke-miterlimit="10"/>
<path id="Vector_4" opacity="0.5" d="M464.216 -20.4835C464.216 -20.4835 499.191 -2.09952 506.637 48.3497" stroke="#535461" stroke-width="2" stroke-miterlimit="10"/>
<path id="Vector_5" opacity="0.5" d="M459.553 58.9642C459.553 58.9642 508.445 56.199 512.234 84.8696" stroke="#535461" stroke-width="2" stroke-miterlimit="10"/>
<path id="Vector_6" opacity="0.5" d="M526.962 -16.5158C526.962 -16.5158 512.454 4.8274 507.837 55.7782" stroke="#535461" stroke-width="2" stroke-miterlimit="10"/>
<path id="Vector_7" opacity="0.5" d="M545.265 129.072C545.265 129.072 535.068 142.508 515.6 109.978" stroke="#535461" stroke-width="2" stroke-miterlimit="10"/>
<path id="Vector_8" opacity="0.5" d="M495.279 164.023C495.279 164.023 520.549 153.795 518.694 136.788" stroke="#535461" stroke-width="2" stroke-miterlimit="10"/>
</g>
<path id="Vector_9" d="M505.736 -157.852C499.509 -155.206 492.5 -150.18 491.711 -140.091C490.157 -120.309 512.836 -111.55 513.375 -91.4453C513.535 -85.4234 511.487 -79.9582 508.937 -75.6963C503.94 -67.3473 497.041 -62.4916 490.949 -56.1211C484.857 -49.7506 479.15 -40.7588 478.56 -29.0776C477.989 -17.8393 482.399 -6.73299 488.035 0.954781C493.671 8.64255 500.487 13.6919 506.926 19.5467C514.792 26.7705 521.885 34.7919 528.092 43.4816C530.845 47.2984 533.521 51.3849 535.382 56.3303C537.486 61.9738 538.36 68.4092 539.206 74.7105L546.7 130.699C547.698 138.153 548.722 145.735 551.047 152.561C553.713 160.443 557.911 166.827 562.034 173.056C570.927 186.492 580.323 200.409 591.964 206.101C603.605 211.793 618.088 206.114 622.192 188.902C626.1 172.517 619.524 153.041 622.024 135.883C625.968 108.844 649.664 100.569 655.287 74.4121C660.688 49.317 647.039 22.5682 644.812 -4.38005C643.219 -23.6918 647.623 -42.4704 647.376 -61.8161C646.993 -89.6826 636.695 -116.61 622.732 -135.28C608.768 -153.949 591.485 -165.233 574.059 -172.921C566.672 -176.178 559.028 -178.869 551.571 -177.789C543.621 -176.634 539.152 -168.531 532.136 -164.958C523.992 -160.768 514.178 -161.439 505.736 -157.852Z" fill="#6C63FF"/>
<path id="Vector_10" d="M544.986 -175.016C544.986 -175.016 612.67 59.8381 604.724 207.911" stroke="#535461" stroke-width="2" stroke-miterlimit="10"/>
<path id="Vector_11" d="M478.676 -23.2734C478.676 -23.2734 580.955 -29.3547 587.663 12.1307" stroke="#535461" stroke-width="2" stroke-miterlimit="10"/>
<path id="Vector_12" d="M548.863 127.851C548.863 127.851 602.098 111.922 598.967 87.298" stroke="#535461" stroke-width="2" stroke-miterlimit="10"/>
<path id="Vector_13" opacity="0.1" d="M411.031 280.385C560.129 241.545 677.974 198.456 674.245 184.142C670.516 169.827 546.626 189.709 397.528 228.549C248.43 267.389 130.585 310.478 134.314 324.792C138.042 339.107 261.933 319.225 411.031 280.385Z" fill="#6C63FF"/>
<path id="Vector_14" d="M272.976 198.554C272.976 198.554 334.678 132.012 385.847 118.682C385.847 118.682 444.953 93.0448 516.182 91.7978C587.411 90.5507 617.637 105.119 634.607 94.109L557.154 116.724L272.976 198.554Z" fill="#8CD0F3"/>
<path id="Vector_15" opacity="0.1" d="M272.976 198.554C272.976 198.554 334.678 132.012 385.847 118.682C385.847 118.682 444.953 93.0448 516.182 91.7978C587.411 90.5507 617.637 105.119 634.607 94.109L557.154 116.724L272.976 198.554Z" fill="#8CD0F3"/>
<path id="Vector_16" d="M640.678 180.011L189.285 297.598L188.75 244.668L260.196 204.275L624.897 119.431L640.678 180.011Z" fill="#121C3F"/>
<path id="Vector_17" d="M656.349 142.768L660.481 158.629C660.481 158.629 649.61 171.836 650.374 179.762C650.374 179.762 632.453 189.632 626.974 191.059C626.475 191.189 625.932 191.33 625.379 191.535C625.637 189.017 625.691 186.481 625.541 183.954C625.128 176.86 623.146 169.946 619.738 163.71C616.33 157.475 611.581 152.073 605.832 147.893C600.083 143.714 593.478 140.861 586.493 139.541C579.507 138.221 572.315 138.465 565.435 140.258C558.555 142.05 552.158 145.345 546.705 149.906C541.251 154.466 536.878 160.179 533.898 166.632C530.919 173.085 529.409 180.118 529.476 187.223C529.544 194.329 531.187 201.331 534.288 207.725C535.781 210.808 537.6 213.722 539.714 216.418L513.694 223.196C513.694 223.196 513.475 223.34 513.128 223.613C511.897 224.607 509.042 227.129 509.251 229.871L293.61 286.045L289.182 287.158C289.711 285.338 290.129 283.488 290.435 281.617C291.011 278.15 291.193 274.629 290.977 271.121C290.6 264.412 288.821 257.858 285.754 251.88C282.688 245.902 278.402 240.632 273.172 236.412C267.943 232.191 261.887 229.112 255.394 227.375C248.901 225.637 242.116 225.279 235.475 226.323C228.835 227.367 222.486 229.79 216.839 233.436C211.192 237.083 206.372 241.871 202.689 247.493C199.006 253.115 196.543 259.445 195.457 266.076C194.372 272.707 194.689 279.492 196.387 285.992C197.185 289.057 198.282 292.037 199.662 294.888C202.005 299.713 205.142 304.111 208.942 307.899C205.666 307.95 198.388 307.569 198.388 307.569C198.388 307.569 168.969 311.985 159.986 307.467L160.892 306.416L164.742 301.997L160.472 294.351C160.124 294.072 159.814 293.75 159.548 293.392C158.623 292.171 157.462 289.758 158.638 286.043C160.412 280.38 154.371 263.426 154.371 263.426C154.371 263.426 188.34 224.024 268.3 196.363C268.3 196.363 270.645 197.369 274.755 196.635C277.539 196.146 281.132 194.852 285.363 191.918C285.363 191.918 292.853 193.214 317.224 169.315C317.224 169.315 357.239 123.13 421.998 109.521C421.998 109.521 486.755 88.4211 548.431 95.4499C575.008 98.4707 594.677 98.6492 608.46 97.8617C621.187 97.1401 628.898 95.6098 632.386 94.7416L632.461 94.7219C633.598 94.4259 634.273 94.2499 634.513 94.1874L634.614 94.1611C634.614 94.1611 636.502 101.41 639.118 109.871L639.129 109.916C640.044 112.857 641.05 115.944 642.109 118.922L642.158 119.111C645.101 127.406 648.372 134.787 650.96 135.743L656.349 142.768Z" fill="#2856B8"/>
<path id="Vector_18" d="M160.774 261.017C160.774 261.017 175.397 241.928 199.036 239.024C199.036 239.024 182.532 260.88 172.886 262.254L170.933 261.301L161.602 264.298C161.602 264.298 159.613 262.458 160.774 261.017Z" fill="#8CD0F3"/>
<path id="Vector_19" opacity="0.2" d="M185.037 281.134L187.238 289.581C187.238 289.581 188.709 297.815 181.496 300.017L160.933 306.472L164.777 302.055L160.507 294.409C160.159 294.133 159.849 293.813 159.585 293.457C161.025 291.222 164.722 287.119 173.635 284.124L185.037 281.134Z" fill="white"/>
<path id="Vector_20" opacity="0.2" d="M272.748 220.476L288.574 215.679C288.574 215.679 283.431 222.463 278.981 224.114C274.531 225.765 272.748 220.476 272.748 220.476Z" fill="white"/>
<path id="Vector_21" opacity="0.2" d="M319.035 260.187C319.035 260.187 458.4 202.424 495.017 199.711C495.017 199.711 505.473 197.721 510.432 200.816C515.39 203.91 510.808 202.26 510.808 202.26L319.035 260.187Z" fill="white"/>
<path id="Vector_22" opacity="0.5" d="M385.288 182.704C385.288 182.704 386.227 178.801 389.174 177.952L408.181 171.943C408.181 171.943 408.572 174.685 405.402 176.568L385.288 182.704Z" fill="#18218A"/>
<path id="Vector_23" opacity="0.5" d="M495.26 147.878C495.26 147.878 496.198 143.976 499.145 143.127L518.146 137.093C518.146 137.093 518.537 139.834 515.367 141.718L495.26 147.878Z" fill="#18218A"/>
<path id="Vector_24" d="M417.25 118.075L412.561 160.676L359.273 174.618L345.549 178.193L333.612 181.303L323.292 183.991L311.601 187.037C311.601 187.037 317.361 179.958 327.096 170.314C330.309 167.119 333.993 163.64 338.04 160.052C341.76 156.739 345.802 153.314 350.108 149.942C353.461 147.29 357.033 144.648 360.722 142.091C377.451 130.517 397.05 120.568 417.25 118.075Z" fill="#8CD0F3"/>
<path id="Vector_25" d="M508.375 124.553C508.375 124.553 486.964 133.654 466.346 141.633C458.465 144.683 450.703 147.567 444.292 149.715L443.4 150.015C440.918 150.837 438.604 151.554 436.625 152.11C433.484 152.989 431.087 153.465 429.807 153.394L426.294 114.728C426.294 114.728 433.89 112.837 445.238 110.467L447.722 109.962C450.085 109.487 452.58 108.999 455.189 108.508C458.916 107.807 462.852 107.105 466.924 106.435C486.585 103.193 509.162 100.687 524.418 102.79C556.886 107.281 508.375 124.553 508.375 124.553Z" fill="#8CD0F3"/>
<path id="Vector_26" opacity="0.2" d="M338.056 160.089L333.619 181.328L323.298 184.017L327.106 170.352C330.338 167.152 334.011 163.682 338.056 160.089Z" fill="white"/>
<path id="Vector_27" opacity="0.2" d="M360.732 142.129L359.268 174.626L345.545 178.201L350.121 149.966C353.503 147.32 357.053 144.697 360.732 142.129Z" fill="white"/>
<path id="Vector_28" opacity="0.2" d="M455.21 108.536L444.307 149.718L443.414 150.018C440.932 150.84 438.618 151.558 436.639 152.113L445.26 110.502L447.744 109.996C450.075 109.524 452.589 109.031 455.21 108.536Z" fill="white"/>
<path id="Vector_29" opacity="0.2" d="M311.928 186.844L321.103 269.471L417.139 242.197L412.898 160.912L311.928 186.844Z" stroke="white" stroke-miterlimit="10"/>
<path id="Vector_30" opacity="0.5" d="M513.128 223.586C511.897 224.58 509.042 227.103 509.251 229.844L293.604 286.02L289.175 287.133C289.704 285.313 290.123 283.462 290.428 281.592L513.128 223.586Z" fill="#18218A"/>
<path id="Vector_31" d="M523.107 270.148C523.107 270.148 521.216 271.921 518.444 265.393C516.662 261.142 512.454 252.516 509.708 246.918L509.361 246.207C509.678 246.009 509.984 245.794 510.279 245.564C510.279 245.564 496.192 220.263 496.231 213.839C496.27 207.415 491.862 197.07 491.862 197.07L483.961 183.996C483.961 183.996 472.596 183.116 468.327 183.164C464.059 183.211 451.008 179.146 451.008 179.146C451.26 179.32 451.502 179.506 451.734 179.705L451.215 179.55C450.196 178.999 449.236 178.346 448.348 177.602C449.968 174.637 450.633 171.245 450.253 167.889C451.012 164.659 450.888 161.285 449.895 158.12C448.902 154.954 447.076 152.114 444.609 149.896C445.069 148.865 445.336 147.759 445.397 146.632C445.406 146.121 445.335 145.612 445.186 145.124C445.052 144.313 444.674 143.563 444.101 142.974C443.528 142.384 442.789 141.985 441.982 141.828C441.451 141.754 440.91 141.788 440.393 141.929C439.876 142.069 439.393 142.313 438.972 142.646C438.188 143.282 437.684 144.221 436.765 144.676C435.229 145.433 433.502 144.495 431.976 143.862C429.609 142.902 427.017 142.642 424.507 143.113C423.405 143.272 422.359 143.697 421.459 144.352C420.647 145.138 419.941 146.027 419.357 146.994C417.072 150.076 413.189 151.781 409.89 153.995C409.258 154.415 408.589 155.007 408.628 155.671C408.634 155.803 408.667 155.932 408.726 156.05C408.738 156.218 408.795 156.38 408.889 156.519C402.418 159.418 397.134 166.278 397.134 166.278L396.291 167.596C395.876 167.494 395.441 167.516 395.039 167.658C394.636 167.8 394.284 168.056 394.025 168.395L392.247 170.731C391.926 171.153 391.769 171.677 391.808 172.206C391.846 172.734 392.076 173.231 392.456 173.601L380.057 193L379.789 193.42L379.774 193.364C379.774 193.364 369.646 206.236 371.413 213.018C372.69 217.92 377.264 219.956 379.669 220.724C378.27 222.947 377.435 225.477 377.234 228.095V228.095L377.251 228.159L377.274 228.247L377.292 228.316L377.312 228.392L377.328 228.455L377.346 228.524L377.362 228.588L377.379 228.651L377.394 228.707L377.408 228.764L377.422 228.815L377.436 228.871L377.448 228.916L377.466 228.985L377.482 229.048L377.492 229.086L377.502 229.124L377.574 229.401L377.594 229.477L377.634 229.629L377.662 229.736L377.69 229.843L377.711 230.134L377.741 230.247L377.759 230.445L377.778 230.521L377.826 230.704L377.861 230.836L377.882 231.1L377.907 231.43L377.924 231.493L377.949 231.77L377.982 231.896L378.007 232.199L378.026 232.275L378.055 232.618L378.093 232.763L378.163 233.627L378.204 234.095L378.224 234.171L378.262 234.653L378.278 234.716L378.318 235.204L378.327 235.242L378.367 235.757L378.395 235.864L378.433 236.373L378.461 236.48L378.504 236.981L378.519 237.038L378.566 237.605L378.592 237.706L378.693 238.973L378.75 239.632L378.775 239.727L378.832 240.386L378.843 240.43L378.938 241.753L378.966 241.86L379.017 242.52L379.04 242.609L379.14 244.004L379.155 244.061L379.205 244.769L379.22 244.826L379.325 246.267L379.348 246.355L379.4 247.069L379.413 247.12L379.514 248.596L379.534 248.672L379.582 249.4L379.595 249.451L379.695 250.947L379.71 251.004L379.758 251.732L379.773 251.789L378.989 253.516L379.006 253.579L379.046 254.303L379.056 254.341L379.137 255.815L379.147 255.853L379.185 256.571L379.195 256.609L379.266 258.019L379.281 258.075L379.312 258.741L379.327 258.798L379.384 260.13L379.396 260.174L379.428 260.84L379.444 260.903L379.49 262.164L379.498 262.196L379.518 262.79L379.533 262.847C379.543 263.249 379.552 263.637 379.56 264.012L379.568 264.563L379.58 264.607C379.586 264.974 379.589 265.325 379.592 265.661L379.59 266.147L379.603 266.197L379.603 266.662C379.591 268.687 379.478 270.063 379.24 270.442C379.007 270.861 378.859 271.32 378.803 271.795V271.795L378.786 271.935L378.771 272.087L378.763 272.237L378.604 272.481L378.598 272.637L378.595 272.78L378.596 272.941L378.632 273.08L378.64 273.239L378.676 273.378C378.703 273.479 378.712 273.584 378.705 273.694L378.738 273.82L378.782 273.991L378.817 274.123L378.861 274.293L378.895 274.426L378.94 274.596L378.974 274.729L379.019 274.899L379.052 275.025C379.106 275.234 379.158 275.435 379.216 275.656C379.226 275.694 379.236 275.732 379.247 275.776C379.259 275.82 379.275 275.883 379.29 275.94C379.305 275.997 379.311 276.022 379.321 276.06C379.331 276.098 379.349 276.167 379.362 276.218C379.375 276.268 379.382 276.294 379.393 276.338C379.405 276.382 379.42 276.439 379.433 276.489L379.462 276.603C379.476 276.653 379.489 276.704 379.502 276.754L379.528 276.855C379.552 276.948 379.576 277.038 379.599 277.126L379.859 278.123L379.895 278.262L379.998 278.659L382.042 278.74C382.042 278.74 383.131 279.016 384.779 279.314C386.229 285.734 387.887 294.505 387.664 300.196C384.152 301.306 375.455 303.969 373.699 303.746C371.483 303.468 358.13 304.817 364.536 312.951C367.218 316.362 371.629 318.312 375.845 319.437C375.429 319.705 374.996 319.946 374.55 320.159C371.444 321.641 370.82 322.97 371.238 324.06C371.498 326.013 375.268 327.288 375.567 327.352C376.024 327.448 390.225 326.094 393.176 324.254C396.128 322.413 408.534 316.628 408.534 316.628C408.534 316.628 408.496 316.483 408.431 316.231C408.431 316.231 407.232 312.352 405.77 308.758C407.191 308.159 408.75 307.544 410.284 307.017C410.731 307.908 411.375 308.685 412.168 309.29C412.961 309.895 413.882 310.311 414.86 310.507C424.633 312.677 425.876 305.933 425.876 305.933C425.876 305.933 438.119 305.135 444.214 301.829C445.06 302.283 445.758 302.579 446.247 302.775C448.758 303.745 454.723 303.303 461.112 301.719C462.851 301.445 464.547 300.951 466.162 300.249C468.924 299.331 471.599 298.167 474.154 296.772C481.306 292.787 481.134 285.218 480.657 281.886C480.937 281.719 481.07 281.348 481.029 280.725C481.096 280.362 481.095 279.99 481.026 279.628C480.812 278.119 480.708 276.597 480.716 275.073L490.323 273.137C496.551 279.707 501.877 284.834 501.877 284.834L508.082 282.362C504.634 280.823 501.433 278.783 498.584 276.307C494.13 272.354 488.146 249.382 488.146 249.382L484.862 235.301L484.899 235.446L484.724 234.771C486.397 238.762 494.232 249.562 494.808 249.601C495.226 249.626 495.635 249.641 496.035 249.652L496.609 250.459C501.133 256.853 512.652 273.229 513.878 275.968C515.446 279.4 540.844 274.272 545.988 271.012C551.131 267.752 523.107 270.148 523.107 270.148ZM412.983 214L407.394 230.17C402.62 225.35 397.825 221.02 393.818 218.372C402.032 216.522 411.494 214.367 412.983 214ZM402.384 179.032C402.784 179.107 403.196 179.07 403.576 178.925C403.956 178.779 404.288 178.531 404.536 178.209L405.154 177.374C405.473 176.96 405.631 176.444 405.601 175.923C405.57 175.401 405.352 174.908 404.987 174.534L405.334 173.952C408.424 172.563 411.412 170.958 414.276 169.15C415.136 171.967 416.661 174.537 418.721 176.642C419.413 178.153 420.332 179.55 421.445 180.784C419.975 181.039 418.388 181.364 416.895 181.767C415.581 182.081 414.295 182.503 413.052 183.031C408.45 185.085 410.132 194.025 410.132 194.025C410.132 194.025 401.352 199.937 395.576 201.57C394.84 201.765 394.08 201.847 393.32 201.814L392.723 201.929L392.95 199.565C392.95 199.565 392.637 199.761 392.105 200.021C392.215 199.701 392.332 199.374 392.456 199.041C394.758 192.815 399.352 184.369 402.387 179.045L402.384 179.032ZM410.292 290.798C409.882 292.254 409.558 293.733 409.323 295.227C407.159 296.263 404.117 297.318 402.103 296.34C401.201 295.925 400.182 295.84 399.223 296.1L399.241 296.014C399.81 293.542 399.506 288.413 398.948 283.169C402.622 282.212 405.313 278.23 405.313 278.23L410.352 278.608L410.607 278.885L410.774 279.064L411.046 279.357L411.216 279.542L411.486 279.828L411.662 280.012L411.93 280.292L412.106 280.475L412.367 280.751L412.542 280.934L412.809 281.208L412.983 281.385L413.249 281.653L413.415 281.825L413.68 282.093L413.845 282.259L414.102 282.522L414.267 282.688L414.53 282.95L414.684 283.098L414.945 283.354L415.099 283.502L415.361 283.757L415.497 283.891L415.766 284.15L415.865 284.246C416.333 284.697 416.77 285.129 417.204 285.528L417.266 285.586L417.515 285.817L417.622 285.917L417.846 286.128L417.969 286.238L418.173 286.427L418.299 286.549L418.486 286.723L418.618 286.843L418.796 287.006L418.92 287.122L419.08 287.269L419.204 287.385L419.354 287.521L419.479 287.637L419.619 287.762L419.742 287.871C416.718 289.215 413.546 290.198 410.292 290.798V290.798Z" fill="url(#paint0_linear)"/>
<path id="Vector_32" d="M543.47 270.456C538.456 273.642 513.663 278.638 512.153 275.245C510.951 272.547 499.706 256.524 495.285 250.265L493.514 247.762L505.507 241.713C505.507 241.713 506.555 243.819 508.025 246.825C510.708 252.31 514.811 260.788 516.56 264.914C519.269 271.303 521.141 269.562 521.141 269.562C521.141 269.562 548.465 267.275 543.47 270.456Z" fill="#FFBDC6"/>
<path id="Vector_33" d="M444.403 173.146C444.403 173.146 444.951 179.262 454.791 182.567C464.631 185.872 462.531 207.466 462.531 207.466L456.404 209.432C452.513 210.682 448.289 210.376 444.62 208.578C440.951 206.779 438.123 203.629 436.73 199.79V199.79C436.73 199.79 438.766 193.195 428.5 180.232L444.403 173.146Z" fill="#FFBDC6"/>
<path id="Vector_34" d="M406.19 175.399C406.19 175.399 397.161 190.343 393.653 199.935C393.232 201.051 392.879 202.191 392.595 203.35C390.528 212.236 377.674 202.016 379.831 196.764L381.556 194.045L398.173 167.887C398.173 167.887 410.175 152.243 419.983 158.662C429.791 165.081 406.19 175.399 406.19 175.399Z" fill="#FFBDC6"/>
<path id="Vector_35" d="M436.86 182.953C446.577 180.422 452.402 170.498 449.873 160.786C447.343 151.075 437.416 145.255 427.699 147.786C417.983 150.317 412.157 160.241 414.687 169.952C417.217 179.663 427.144 185.484 436.86 182.953Z" fill="#A66477"/>
<path id="Vector_36" d="M390.438 298.422C390.438 298.422 377.543 302.617 375.383 302.344C373.222 302.071 360.209 303.379 366.484 311.345C372.759 319.312 388.559 319.157 388.559 319.157L398.577 313.623L390.438 298.422Z" fill="#7679B4"/>
<path id="Vector_37" opacity="0.05" d="M390.438 298.422C390.438 298.422 377.543 302.617 375.383 302.344C373.222 302.071 360.209 303.379 366.484 311.345C372.759 319.312 388.559 319.157 388.559 319.157L398.577 313.623L390.438 298.422Z" fill="black"/>
<path id="Vector_38" d="M427.131 247.766L456.203 251.593L479.428 279.444C479.428 279.444 482.524 290.529 473.415 295.617C464.305 300.705 450.314 303.097 446.13 301.472C441.945 299.847 423.565 288.573 423.565 288.573L427.131 247.766Z" fill="#7679B4"/>
<path id="Vector_39" opacity="0.05" d="M425.345 248.232L450.321 250.827L469.887 272.862C469.887 272.862 472.379 281.732 464.45 285.967C456.52 290.202 444.427 292.348 440.849 291.111C437.271 289.874 421.616 281.091 421.616 281.091L425.345 248.232Z" fill="black"/>
<path id="Vector_40" d="M412.721 292.617C412.721 292.617 406.489 296.747 403.145 295.112C399.8 293.477 395.672 297.685 395.672 297.685L401.139 309.823C401.139 309.823 410.351 305.126 415.787 304.336L412.721 292.617Z" fill="#FFBDC6"/>
<path id="Vector_41" opacity="0.05" d="M412.721 292.617C412.721 292.617 406.489 296.747 403.145 295.112C399.8 293.477 395.672 297.685 395.672 297.685L401.139 309.823C401.139 309.823 410.351 305.126 415.787 304.336L412.721 292.617Z" fill="black"/>
<path id="Vector_42" d="M413.054 277.931L406.251 277.406C406.251 277.406 400.986 285.245 395.143 281.344C389.3 277.442 392.425 254.092 392.425 254.092L397.741 236.848L409.835 256.025L418.541 264.604L413.054 277.931Z" fill="#565388"/>
<path id="Vector_43" opacity="0.05" d="M413.054 277.931L406.251 277.406C406.251 277.406 400.986 285.245 395.143 281.344C389.3 277.442 392.425 254.092 392.425 254.092L397.741 236.848L409.835 256.025L418.541 264.604L413.054 277.931Z" fill="black"/>
<path id="Vector_44" d="M472.382 261.223L486.967 259.506L493.066 271.688L475.414 275.242L472.382 261.223Z" fill="#565388"/>
<path id="Vector_45" opacity="0.05" d="M472.382 261.223L486.967 259.506L493.066 271.688L475.414 275.242L472.382 261.223Z" fill="black"/>
<path id="Vector_46" opacity="0.1" d="M434.22 195.64C434.22 195.64 445.937 216.579 460.467 195.479L482.344 258.628C482.344 258.628 478.683 270.22 480.04 279.44C481.397 288.66 454.825 256.365 444.615 258.835C434.406 261.306 420.643 249.746 420.643 249.746L425.948 223.221L434.22 195.64Z" fill="black"/>
<path id="Vector_47" d="M434.262 195.002C434.262 195.002 445.979 215.941 460.51 194.841L482.386 257.99C482.386 257.99 478.726 269.582 480.083 278.802C481.44 288.022 454.867 255.727 444.658 258.198C434.449 260.669 420.686 249.108 420.686 249.108L425.99 222.583L434.262 195.002Z" fill="#F2F1F2"/>
<path id="Vector_48" opacity="0.1" d="M427.365 181.357C427.365 181.357 418.802 182.126 414.309 184.131C409.817 186.137 411.474 194.882 411.474 194.882C411.474 194.882 399.401 203.032 394.508 202.67C394.508 202.67 372.006 206.861 373.737 213.504C375.467 220.148 383.316 221.398 383.316 221.398C383.316 221.398 414.258 214.442 414.458 214.33C420.986 210.54 414.262 214.381 414.262 214.381L406.543 236.839L422.495 249.998L432.615 237.559C432.615 237.559 431.941 228.552 434.937 223.183C437.066 219.348 437.295 204.52 437.252 196.359C437.242 194.64 436.891 192.941 436.219 191.359C435.546 189.778 434.566 188.345 433.335 187.145L427.365 181.357Z" fill="black"/>
<path id="Vector_49" opacity="0.1" d="M393.653 199.935C393.232 201.051 392.878 202.191 392.595 203.35C390.528 212.236 377.673 202.016 379.831 196.765L381.556 194.045C383.349 204.344 391.282 201.132 393.653 199.935Z" fill="black"/>
<path id="Vector_50" opacity="0.1" d="M414.063 213.617L413.842 213.675C413.842 213.675 420.592 209.828 414.063 213.617Z" fill="black"/>
<path id="Vector_51" d="M426.777 181.51C426.777 181.51 418.215 182.279 413.722 184.284C409.229 186.29 410.887 195.034 410.887 195.034C410.887 195.034 398.814 203.185 393.92 202.823L394.142 200.468C394.142 200.468 383.191 207.282 381.292 194.403C381.292 194.403 371.419 206.987 373.149 213.63C374.88 220.274 382.728 221.551 382.728 221.551C382.728 221.551 413.67 214.595 413.87 214.483C420.399 210.693 413.675 214.534 413.675 214.534L405.956 236.992L421.908 250.151L432.028 237.712C432.028 237.712 431.353 228.705 434.35 223.336C436.478 219.501 436.708 204.673 436.665 196.512C436.655 194.793 436.304 193.094 435.631 191.512C434.959 189.93 433.979 188.498 432.748 187.298L426.777 181.51Z" fill="#565388"/>
<path id="Vector_52" opacity="0.1" d="M483.593 234.52L483.872 235.593C483.697 235.262 483.601 234.895 483.593 234.52V234.52Z" fill="black"/>
<path id="Vector_53" opacity="0.1" d="M508.031 246.85C504.21 249.211 499.782 250.407 495.291 250.29L493.52 247.787L505.514 241.739C505.514 241.739 506.56 243.865 508.031 246.85Z" fill="black"/>
<path id="Vector_54" opacity="0.1" d="M450.143 180.638C450.143 180.638 462.87 184.626 467.039 184.584C471.207 184.542 482.286 185.409 482.286 185.409L490.005 198.22C490.005 198.22 494.318 208.361 494.278 214.624C494.238 220.887 482.482 235.847 482.807 233.883L486.435 249.417C486.435 249.417 492.288 271.884 496.659 275.724C501.03 279.564 489.497 272.685 489.497 272.685C489.497 272.685 474.2 259.247 470.139 249.249C466.079 239.251 457.845 198.87 457.845 198.87L455.175 196.642C455.175 196.642 456.505 185.031 450.143 180.638Z" fill="black"/>
<path id="Vector_55" d="M450.73 180.485C450.73 180.485 463.458 184.473 467.626 184.431C471.795 184.389 482.873 185.256 482.873 185.256L490.592 198.067C490.592 198.067 494.906 208.208 494.865 214.471C494.825 220.734 508.592 245.532 508.592 245.532C508.592 245.532 503.039 250.091 493.537 249.454C492.899 249.411 483.065 235.702 483.377 233.741L487.005 249.275C487.005 249.275 492.858 271.742 497.229 275.582C500.009 278.006 503.133 280.005 506.499 281.515L500.447 283.927C500.447 283.927 474.766 259.14 470.704 249.163C466.642 239.185 458.406 198.744 458.406 198.744L455.736 196.516C455.736 196.516 457.092 184.878 450.73 180.485Z" fill="#565388"/>
<path id="Vector_56" d="M421.791 288.18C421.791 288.18 403.762 272.664 402.048 263.679C402.048 263.679 403.638 276.2 402.087 277.439C400.536 278.679 381.51 277.787 381.51 277.787C381.51 277.787 379.248 272.313 380.699 269.86C382.15 267.407 378.791 229.671 378.791 229.671C378.791 229.671 378.399 219.343 387.626 216.313C396.854 213.283 430.388 255.454 430.388 255.454C430.388 255.454 440.949 283.189 421.791 288.18Z" fill="#7679B4"/>
<path id="Vector_57" d="M384.19 270.426C384.19 270.426 391.706 297.674 387.992 303.445C384.278 309.216 404.046 306.566 404.046 306.566C404.046 306.566 398.995 300.788 400.354 294.801C401.714 288.815 397.875 266.861 397.875 266.861L384.19 270.426Z" fill="#FFBDC6"/>
<path id="Vector_58" opacity="0.05" d="M393.361 301.649C393.361 301.649 390.132 297.275 385.873 302.556C385.873 302.556 384.032 314.717 376.227 318.421C368.422 322.125 376.682 324.98 377.124 325.073C377.567 325.167 391.421 323.855 394.291 322.063C397.161 320.271 409.258 314.621 409.258 314.621C409.258 314.621 405.312 301.878 403.117 301.398C400.923 300.919 403.656 307.503 393.361 301.649Z" fill="black"/>
<path id="Vector_59" d="M393.459 302.021C393.459 302.021 390.23 297.648 385.97 302.928C385.97 302.928 384.129 315.09 376.324 318.794C368.519 322.498 376.779 325.352 377.221 325.445C377.664 325.539 391.518 324.227 394.388 322.436C397.258 320.644 409.363 314.997 409.363 314.997C409.363 314.997 405.417 302.255 403.223 301.775C401.028 301.296 403.757 307.888 393.459 302.021Z" fill="#7679B4"/>
<path id="Vector_60" d="M398.285 169.664C400.603 171.797 403.027 173.812 405.548 175.702C405.784 175.866 405.984 176.077 406.137 176.321C406.289 176.565 406.391 176.837 406.435 177.121C406.48 177.405 406.466 177.696 406.395 177.975C406.325 178.254 406.198 178.515 406.023 178.744L405.416 179.542C405.242 179.77 405.024 179.961 404.775 180.102C404.526 180.244 404.251 180.334 403.967 180.367C403.682 180.401 403.394 180.376 403.119 180.296C402.845 180.215 402.589 180.08 402.367 179.899C400.039 177.975 397.37 176.506 394.498 175.568C394.172 175.467 393.875 175.288 393.632 175.047C393.389 174.806 393.207 174.511 393.103 174.185C392.998 173.86 392.973 173.514 393.031 173.177C393.088 172.84 393.225 172.522 393.431 172.249L395.162 169.965C395.34 169.73 395.565 169.535 395.822 169.391C396.08 169.247 396.364 169.158 396.658 169.13C396.951 169.102 397.247 169.134 397.528 169.226C397.808 169.318 398.066 169.467 398.285 169.664V169.664Z" fill="#565388"/>
<path id="Vector_61" opacity="0.1" d="M448.477 179.495C445.027 176.601 444.774 173.662 444.774 173.662L428.86 180.759C430.687 183.035 432.331 185.452 433.776 187.987C436.773 188.075 439.736 187.327 442.332 185.827C444.929 184.328 447.057 182.135 448.477 179.495V179.495Z" fill="black"/>
<path id="Vector_62" d="M438.003 186.926C446.639 184.677 451.816 175.857 449.568 167.226C447.32 158.595 438.497 153.422 429.861 155.671C421.226 157.921 416.048 166.741 418.296 175.372C420.544 184.003 429.368 189.176 438.003 186.926Z" fill="#FFBDC6"/>
<path id="Vector_63" opacity="0.1" d="M424.93 164.946C426.343 164.315 427.43 163.109 428.907 162.643C430.776 162.055 432.802 162.821 434.459 163.723C436.117 164.626 437.782 165.714 439.754 165.78C440.996 165.749 442.224 165.516 443.39 165.089C444.063 164.95 444.68 164.611 445.158 164.116C445.376 163.777 445.506 163.389 445.538 162.987C445.742 161.678 445.671 160.342 445.327 159.064C444.984 157.785 444.376 156.593 443.544 155.563C443.333 155.36 443.196 155.092 443.157 154.801C443.17 154.619 443.223 154.443 443.311 154.283C444.186 152.465 445.13 150.629 445.171 148.691C445.213 146.754 444.009 144.696 441.938 144.38C441.422 144.301 440.894 144.328 440.388 144.46C439.883 144.591 439.409 144.825 438.997 145.146C438.229 145.77 437.746 146.684 436.818 147.135C435.319 147.876 433.63 146.955 432.146 146.331C429.842 145.389 427.315 145.13 424.868 145.586C423.785 145.739 422.757 146.157 421.875 146.803C421.092 147.563 420.409 148.421 419.843 149.354C417.615 152.366 413.829 154.033 410.618 156.197C410.005 156.613 409.346 157.162 409.394 157.863C409.442 158.565 410.375 159.043 411.208 159.135C412.041 159.228 412.962 159.191 413.62 159.646C414.448 160.239 414.525 161.364 414.887 162.287C415.614 164.119 417.542 164.715 419.522 164.785C421.17 164.874 423.487 165.591 424.93 164.946Z" fill="black"/>
<path id="Vector_64" d="M424.828 164.555C426.241 163.924 427.329 162.718 428.805 162.252C430.674 161.664 432.701 162.43 434.358 163.332C436.015 164.234 437.681 165.323 439.653 165.389C440.894 165.358 442.122 165.125 443.288 164.698C443.962 164.558 444.578 164.219 445.057 163.725C445.274 163.385 445.404 162.997 445.437 162.595C445.641 161.287 445.569 159.951 445.225 158.672C444.882 157.394 444.275 156.201 443.442 155.172C443.231 154.969 443.095 154.7 443.055 154.41C443.069 154.228 443.121 154.051 443.21 153.892C444.084 152.074 445.028 150.238 445.07 148.3C445.111 146.363 443.908 144.305 441.837 143.988C441.32 143.909 440.793 143.937 440.287 144.068C439.781 144.2 439.307 144.434 438.895 144.755C438.127 145.379 437.644 146.293 436.717 146.744C435.218 147.485 433.529 146.564 432.045 145.94C429.769 145.026 427.28 144.778 424.868 145.222C423.785 145.376 422.757 145.794 421.875 146.44C421.092 147.2 420.409 148.057 419.843 148.99C417.615 152.003 413.829 153.669 410.618 155.833C410.005 156.249 409.346 156.798 409.394 157.499C409.442 158.201 410.375 158.679 411.208 158.772C412.041 158.865 412.962 158.827 413.62 159.282C414.448 159.875 414.525 161 414.887 161.923C415.614 163.755 417.542 164.351 419.522 164.421C421.068 164.483 423.385 165.2 424.828 164.555Z" fill="#A66477"/>
<path id="Vector_65" opacity="0.05" d="M431.793 243.022C431.793 243.022 443.453 242.005 447.813 247.304C452.173 252.602 473.198 264.534 473.198 264.534" fill="black"/>
<g id="Group_2" opacity="0.05">
<path id="Vector_66" opacity="0.05" d="M402.124 275.975C400.566 277.216 381.549 276.329 381.549 276.329C380.89 274.685 380.46 272.958 380.272 271.197C379.897 273.896 381.514 277.8 381.514 277.8C381.514 277.8 400.532 278.687 402.089 277.446C402.602 277.036 402.773 275.388 402.771 273.361C402.697 274.68 402.513 275.685 402.124 275.975Z" fill="black"/>
<path id="Vector_67" opacity="0.05" d="M378.845 228.377C378.804 228.811 378.787 229.247 378.794 229.683C378.794 229.683 381.148 256.107 381.06 266.148C381.419 257.923 379.053 230.728 378.845 228.377Z" fill="black"/>
<path id="Vector_68" opacity="0.05" d="M421.824 286.702C421.824 286.702 403.795 271.187 402.081 262.201C402.081 262.201 402.228 263.335 402.387 264.951C405.386 274.033 421.791 288.18 421.791 288.18C430.9 285.807 433.292 278.298 433.29 271.07C432.969 277.81 430.321 284.489 421.824 286.702Z" fill="black"/>
</g>
<path id="Vector_69" d="M471.666 282.484C471.666 282.484 468.377 266.652 448.487 272.043C428.597 277.433 447.704 272.246 447.704 272.246C447.704 272.246 439.272 271.937 430.933 279.984C422.595 288.031 411.133 289.73 411.133 289.73C411.133 289.73 406.007 306.925 415.534 309.031C425.061 311.137 426.26 304.532 426.26 304.532C426.26 304.532 444.326 303.37 447.069 297.859C450.584 299.898 454.621 300.86 458.679 300.624C462.737 300.389 466.636 298.967 469.893 296.535C469.893 296.535 478.543 289.66 471.666 282.484Z" fill="#7679B4"/>
</g>
<g id="left-wheel">
<path id="Vector_70" d="M252.629 311.003C273.153 305.657 285.459 284.694 280.116 264.181C274.772 243.668 253.803 231.373 233.279 236.72C212.755 242.066 200.449 263.029 205.793 283.542C211.136 304.055 232.106 316.35 252.629 311.003Z" fill="#182A7C"/>
<path id="Vector_71" d="M272.753 266.065C274.763 273.726 273.753 281.866 269.93 288.805C266.107 295.743 259.765 300.95 252.213 303.349C244.66 305.748 236.475 305.156 229.349 301.696C222.222 298.235 216.698 292.171 213.918 284.755C211.138 277.339 211.314 269.138 214.41 261.847C217.505 254.555 223.285 248.73 230.553 245.575C237.822 242.42 246.025 242.175 253.467 244.892C260.909 247.608 267.023 253.079 270.544 260.173C271.479 262.057 272.219 264.031 272.753 266.065Z" fill="#3F8FFE"/>
<path id="Vector_72" opacity="0.5" d="M249.588 299.507C263.738 295.821 272.216 281.339 268.522 267.161C264.829 252.982 250.364 244.477 236.213 248.163C222.062 251.85 213.584 266.332 217.278 280.51C220.971 294.688 235.437 303.193 249.588 299.507Z" fill="#18218A"/>
<path id="Vector_73" d="M244.008 242.946L244.29 244.031L243.114 274.473L228.515 246.483C233.284 243.978 238.624 242.759 244.008 242.946V242.946Z" fill="#3F8FFE"/>
<path id="Vector_74" d="M258.88 300.3C254.372 303.018 249.246 304.544 243.985 304.732L243.107 274.475L258.88 300.3Z" fill="#3F8FFE"/>
<path id="Vector_75" d="M272.753 266.065C273.569 269.177 273.894 272.398 273.716 275.61L273.597 275.641L243.14 274.473L270.597 260.166C271.513 262.055 272.235 264.031 272.753 266.065Z" fill="#3F8FFE"/>
<path id="Vector_76" d="M243.113 274.473L217.098 290.352L216.877 290.41C214.021 285.892 212.373 280.717 212.092 275.379L243.113 274.473Z" fill="#3F8FFE"/>
<path id="Vector_77" d="M243.753 277.11C245.563 276.638 246.647 274.79 246.176 272.982C245.705 271.173 243.857 270.089 242.047 270.561C240.238 271.032 239.153 272.88 239.624 274.689C240.095 276.497 241.944 277.581 243.753 277.11Z" fill="#182A7C"/>
</g>
<g id="right-wheel">
<path id="Vector_78" d="M586.982 223.905C607.506 218.559 619.812 197.596 614.469 177.083C609.125 156.57 588.156 144.275 567.632 149.621C547.108 154.968 534.802 175.931 540.146 196.444C545.489 216.957 566.459 229.251 586.982 223.905Z" fill="#182A7C"/>
<path id="Vector_79" d="M607.113 178.965C609.123 186.626 608.112 194.766 604.289 201.705C600.467 208.643 594.124 213.85 586.572 216.249C579.02 218.648 570.835 218.056 563.708 214.596C556.582 211.136 551.057 205.071 548.277 197.655C545.497 190.239 545.673 182.039 548.769 174.747C551.865 167.456 557.644 161.631 564.913 158.475C572.181 155.32 580.384 155.075 587.826 157.792C595.269 160.508 601.382 165.979 604.904 173.073C605.839 174.957 606.579 176.931 607.113 178.965Z" fill="#3F8FFE"/>
<path id="Vector_80" opacity="0.5" d="M583.947 212.407C598.098 208.721 606.575 194.239 602.882 180.061C599.189 165.883 584.723 157.377 570.572 161.063C556.421 164.75 547.944 179.232 551.637 193.41C555.331 207.588 569.796 216.093 583.947 212.407Z" fill="#18218A"/>
<path id="Vector_81" d="M578.361 155.848L578.644 156.933L577.467 187.375L562.868 159.385C567.637 156.88 572.977 155.66 578.361 155.848V155.848Z" fill="#3F8FFE"/>
<path id="Vector_82" d="M593.24 213.2C588.732 215.918 583.605 217.444 578.345 217.633L577.466 187.375L593.24 213.2Z" fill="#3F8FFE"/>
<path id="Vector_83" d="M607.113 178.965C607.928 182.077 608.253 185.298 608.076 188.51L607.931 188.548L577.467 187.375L604.923 173.068C605.85 174.955 606.584 176.931 607.113 178.965V178.965Z" fill="#3F8FFE"/>
<path id="Vector_84" d="M577.467 187.375L551.452 203.254L551.231 203.312C548.374 198.794 546.727 193.618 546.446 188.281L577.467 187.375Z" fill="#3F8FFE"/>
<path id="Vector_85" d="M578.112 190.01C579.922 189.538 581.007 187.69 580.536 185.882C580.065 184.073 578.216 182.989 576.407 183.461C574.597 183.932 573.512 185.78 573.983 187.589C574.454 189.397 576.303 190.481 578.112 190.01Z" fill="#182A7C"/>
</g>
</g>
</g>
<defs>
<linearGradient id="paint0_linear" x1="459.239" y1="307.314" x2="416.973" y2="145.062" gradientUnits="userSpaceOnUse">
<stop stop-color="#808080" stop-opacity="0.25"/>
<stop offset="0.54" stop-color="#808080" stop-opacity="0.12"/>
<stop offset="1" stop-color="#808080" stop-opacity="0.1"/>
</linearGradient>
<clipPath id="clip0">
<rect y="-34.1531" width="646" height="474" transform="rotate(-14.6009 0 -34.1531)" fill="white"/>
</clipPath>
</defs>
</svg>
