<svg width="678" height="569" viewBox="0 0 678 569" fill="none" xmlns="http://www.w3.org/2000/svg">
<g id="undraw_fast_car_p4cu 1">
<g clip-path="url(#clip0)">
<path id="Vector" d="M248.535 170.601L327.635 187.031L331.19 169.915C331.416 168.829 332.063 167.877 332.99 167.269C333.917 166.66 335.048 166.445 336.133 166.67L359.361 171.495L363.148 153.263C363.29 152.579 363.697 151.98 364.281 151.597C364.864 151.214 365.576 151.079 366.259 151.221L396.18 157.435C396.863 157.577 397.462 157.985 397.844 158.569C398.227 159.152 398.362 159.864 398.22 160.548L394.432 178.786L421.739 184.458C422.825 184.684 423.776 185.331 424.384 186.259C424.992 187.186 425.207 188.317 424.981 189.402L421.426 206.519L496.853 222.186C497.072 222.233 497.263 222.365 497.386 222.553C497.508 222.741 497.551 222.97 497.505 223.19L450.31 450.406C450.264 450.625 450.134 450.818 449.947 450.942C449.759 451.066 449.531 451.11 449.311 451.066L399.183 440.654C398.962 440.608 398.769 440.477 398.645 440.288C398.521 440.1 398.478 439.87 398.524 439.649L404.873 409.079C404.918 408.858 404.873 408.629 404.75 408.441C404.627 408.253 404.434 408.121 404.214 408.074L383.039 403.675C382.818 403.631 382.589 403.676 382.401 403.799C382.213 403.922 382.081 404.115 382.034 404.335L375.684 434.905C375.639 435.125 375.508 435.317 375.321 435.441C375.134 435.565 374.905 435.61 374.686 435.566L275.631 414.991C275.411 414.943 275.218 414.811 275.095 414.623C274.972 414.435 274.927 414.206 274.971 413.986L281.321 383.416C281.367 383.196 281.324 382.967 281.202 382.779C281.079 382.591 280.888 382.459 280.668 382.412L259.493 378.013C259.272 377.967 259.042 378.011 258.854 378.135C258.666 378.258 258.534 378.452 258.488 378.673L252.138 409.243C252.091 409.463 251.959 409.655 251.771 409.779C251.583 409.902 251.354 409.946 251.133 409.902L201.005 399.49C200.785 399.443 200.593 399.311 200.469 399.123C200.346 398.935 200.302 398.705 200.346 398.485L247.543 171.263C247.59 171.045 247.72 170.854 247.905 170.73C248.09 170.607 248.316 170.56 248.535 170.601ZM416.225 399.493C416.179 399.712 416.223 399.94 416.345 400.127C416.468 400.314 416.66 400.445 416.879 400.491L447.841 406.922C447.95 406.945 448.062 406.947 448.172 406.927C448.281 406.907 448.385 406.865 448.479 406.804C448.572 406.743 448.652 406.665 448.715 406.573C448.778 406.481 448.822 406.377 448.845 406.268L451.036 395.719C451.059 395.609 451.06 395.497 451.039 395.387C451.018 395.277 450.976 395.173 450.914 395.08C450.853 394.986 450.774 394.906 450.682 394.843C450.59 394.78 450.486 394.736 450.377 394.714L419.396 388.278C419.176 388.234 418.948 388.279 418.761 388.403C418.574 388.527 418.443 388.72 418.398 388.939L416.225 399.493ZM421.903 372.154C421.88 372.263 421.878 372.375 421.899 372.484C421.919 372.594 421.96 372.698 422.021 372.792C422.082 372.885 422.16 372.965 422.252 373.028C422.344 373.091 422.447 373.135 422.556 373.158L453.518 379.589C453.628 379.612 453.741 379.614 453.851 379.593C453.961 379.573 454.065 379.531 454.159 379.469C454.252 379.408 454.333 379.329 454.395 379.236C454.458 379.143 454.501 379.039 454.523 378.929L456.72 368.355C456.743 368.246 456.745 368.133 456.724 368.023C456.704 367.913 456.662 367.808 456.601 367.714C456.539 367.621 456.46 367.54 456.367 367.478C456.274 367.415 456.17 367.372 456.061 367.35L425.08 360.915C424.971 360.892 424.859 360.891 424.75 360.912C424.64 360.933 424.536 360.976 424.443 361.037C424.35 361.099 424.271 361.178 424.209 361.27C424.146 361.363 424.103 361.466 424.081 361.575L421.903 372.154ZM427.581 344.821C427.535 345.04 427.578 345.269 427.701 345.457C427.823 345.645 428.015 345.777 428.234 345.825L459.196 352.256C459.305 352.279 459.418 352.279 459.527 352.259C459.637 352.238 459.741 352.195 459.835 352.134C459.928 352.073 460.008 351.994 460.071 351.902C460.134 351.809 460.178 351.706 460.201 351.596L462.398 341.016C462.421 340.906 462.422 340.794 462.401 340.684C462.38 340.574 462.338 340.47 462.277 340.377C462.216 340.283 462.137 340.203 462.045 340.14C461.952 340.077 461.849 340.033 461.739 340.011L430.759 333.575C430.539 333.532 430.31 333.576 430.123 333.7C429.936 333.824 429.806 334.017 429.76 334.236L427.581 344.821ZM433.26 317.482C433.236 317.59 433.234 317.703 433.255 317.812C433.275 317.922 433.316 318.026 433.377 318.12C433.438 318.213 433.516 318.293 433.608 318.356C433.7 318.419 433.804 318.463 433.913 318.485L464.875 324.917C464.984 324.94 465.097 324.942 465.207 324.921C465.317 324.901 465.421 324.859 465.515 324.797C465.608 324.736 465.689 324.657 465.751 324.564C465.814 324.471 465.857 324.367 465.879 324.257L468.069 313.714C468.093 313.604 468.095 313.491 468.074 313.381C468.054 313.271 468.012 313.166 467.95 313.073C467.889 312.979 467.81 312.899 467.717 312.836C467.624 312.774 467.52 312.73 467.41 312.708L436.43 306.273C436.321 306.251 436.209 306.25 436.099 306.271C435.99 306.292 435.886 306.334 435.793 306.396C435.7 306.457 435.62 306.536 435.558 306.629C435.496 306.721 435.453 306.825 435.431 306.934L433.26 317.482ZM438.937 290.149C438.891 290.368 438.934 290.597 439.057 290.785C439.179 290.973 439.371 291.105 439.59 291.152L470.552 297.584C470.661 297.606 470.774 297.607 470.883 297.586C470.993 297.566 471.098 297.523 471.191 297.462C471.284 297.401 471.365 297.322 471.427 297.229C471.49 297.137 471.534 297.033 471.557 296.924L473.755 286.344C473.777 286.235 473.778 286.122 473.757 286.013C473.736 285.903 473.694 285.799 473.632 285.707C473.571 285.614 473.492 285.534 473.399 285.472C473.307 285.41 473.203 285.366 473.094 285.345L442.114 278.91C441.895 278.864 441.667 278.907 441.479 279.03C441.292 279.153 441.162 279.345 441.116 279.564L438.937 290.149ZM444.614 262.816C444.569 263.035 444.612 263.263 444.735 263.45C444.858 263.637 445.05 263.768 445.269 263.813L476.231 270.245C476.339 270.268 476.452 270.27 476.561 270.249C476.671 270.229 476.775 270.188 476.868 270.127C476.962 270.066 477.042 269.988 477.105 269.896C477.168 269.804 477.212 269.7 477.234 269.591L479.432 259.011C479.455 258.901 479.456 258.789 479.435 258.679C479.414 258.569 479.372 258.465 479.311 258.371C479.249 258.278 479.17 258.198 479.078 258.135C478.986 258.072 478.882 258.028 478.773 258.005L447.792 251.57C447.572 251.526 447.344 251.571 447.157 251.695C446.97 251.819 446.839 252.012 446.794 252.231L444.614 262.816ZM450.293 235.476C450.27 235.585 450.268 235.698 450.288 235.807C450.308 235.917 450.35 236.021 450.411 236.114C450.471 236.208 450.55 236.288 450.642 236.351C450.734 236.414 450.837 236.458 450.946 236.48L481.908 242.912C482.017 242.935 482.13 242.937 482.24 242.916C482.35 242.896 482.455 242.854 482.548 242.792C482.642 242.731 482.722 242.651 482.785 242.559C482.847 242.466 482.891 242.362 482.913 242.252L485.103 231.708C485.126 231.599 485.128 231.486 485.108 231.376C485.087 231.266 485.045 231.161 484.984 231.068C484.922 230.974 484.843 230.894 484.75 230.831C484.658 230.769 484.553 230.725 484.444 230.703L453.463 224.268C453.354 224.246 453.242 224.245 453.133 224.266C453.023 224.287 452.919 224.329 452.827 224.391C452.734 224.452 452.654 224.531 452.592 224.624C452.53 224.716 452.486 224.82 452.465 224.929L450.293 235.476ZM342.821 384.239C342.798 384.348 342.797 384.461 342.818 384.57C342.839 384.68 342.882 384.784 342.943 384.877C343.004 384.969 343.084 385.049 343.176 385.111C343.268 385.173 343.372 385.217 343.481 385.238L374.443 391.67C374.663 391.715 374.891 391.672 375.079 391.55C375.267 391.427 375.399 391.236 375.447 391.016L377.637 380.473C377.681 380.252 377.636 380.023 377.513 379.835C377.39 379.647 377.197 379.515 376.978 379.468L346.016 373.036C345.906 373.014 345.794 373.013 345.684 373.034C345.574 373.054 345.47 373.097 345.377 373.158C345.283 373.219 345.203 373.298 345.14 373.391C345.077 373.483 345.033 373.587 345.011 373.696L342.821 384.239ZM348.499 356.9C348.476 357.01 348.474 357.123 348.495 357.233C348.515 357.343 348.557 357.447 348.619 357.541C348.68 357.634 348.759 357.715 348.852 357.777C348.945 357.84 349.049 357.884 349.159 357.905L380.121 364.337C380.341 364.383 380.571 364.339 380.759 364.215C380.948 364.091 381.08 363.898 381.125 363.677L383.321 353.109C383.366 352.888 383.323 352.658 383.199 352.47C383.076 352.281 382.882 352.15 382.661 352.104L351.699 345.673C351.59 345.649 351.477 345.647 351.367 345.668C351.257 345.688 351.153 345.731 351.059 345.792C350.966 345.853 350.885 345.933 350.823 346.025C350.76 346.118 350.717 346.222 350.695 346.332L348.499 356.9ZM354.177 329.567C354.154 329.677 354.153 329.789 354.174 329.899C354.195 330.009 354.237 330.113 354.298 330.206C354.359 330.3 354.438 330.38 354.531 330.443C354.623 330.506 354.727 330.55 354.836 330.572L385.798 337.004C386.018 337.048 386.247 337.003 386.435 336.88C386.623 336.757 386.755 336.564 386.803 336.344L388.999 325.77C389.043 325.549 388.999 325.32 388.876 325.132C388.752 324.944 388.56 324.812 388.34 324.765L357.378 318.333C357.269 318.311 357.156 318.31 357.047 318.331C356.937 318.351 356.833 318.394 356.739 318.455C356.646 318.516 356.566 318.595 356.503 318.688C356.44 318.78 356.396 318.884 356.373 318.993L354.177 329.567ZM359.856 302.228C359.832 302.338 359.83 302.45 359.851 302.56C359.871 302.67 359.913 302.775 359.975 302.869C360.036 302.962 360.115 303.043 360.208 303.105C360.301 303.168 360.405 303.211 360.515 303.233L391.477 309.665C391.697 309.71 391.927 309.667 392.116 309.543C392.304 309.419 392.436 309.226 392.481 309.005L394.67 298.468C394.716 298.247 394.672 298.017 394.549 297.828C394.425 297.64 394.232 297.508 394.011 297.462L363.049 291.031C362.94 291.008 362.827 291.006 362.717 291.027C362.607 291.047 362.502 291.089 362.409 291.151C362.315 291.212 362.235 291.291 362.172 291.384C362.11 291.477 362.066 291.581 362.044 291.691L359.856 302.228ZM365.533 274.895C365.51 275.004 365.509 275.117 365.53 275.227C365.551 275.337 365.593 275.441 365.654 275.534C365.716 275.628 365.795 275.708 365.887 275.771C365.979 275.834 366.083 275.878 366.192 275.9L397.154 282.332C397.375 282.376 397.604 282.331 397.792 282.208C397.98 282.084 398.112 281.892 398.159 281.672L400.355 271.098C400.399 270.878 400.355 270.649 400.231 270.462C400.107 270.275 399.915 270.144 399.695 270.099L368.733 263.667C368.624 263.644 368.512 263.642 368.402 263.662C368.293 263.683 368.189 263.724 368.095 263.785C368.002 263.846 367.922 263.924 367.859 264.016C367.796 264.108 367.752 264.212 367.729 264.321L365.533 274.895ZM371.21 247.562C371.188 247.671 371.187 247.784 371.208 247.893C371.229 248.002 371.271 248.106 371.333 248.199C371.394 248.292 371.473 248.372 371.566 248.434C371.658 248.496 371.762 248.539 371.871 248.561L402.833 254.992C403.052 255.038 403.281 254.995 403.469 254.873C403.657 254.75 403.789 254.558 403.836 254.339L406.033 243.765C406.077 243.544 406.033 243.315 405.909 243.127C405.786 242.939 405.593 242.807 405.374 242.759L374.412 236.328C374.302 236.306 374.19 236.305 374.08 236.326C373.971 236.346 373.866 236.389 373.773 236.45C373.679 236.511 373.599 236.59 373.536 236.682C373.473 236.775 373.43 236.879 373.407 236.988L371.21 247.562ZM376.889 220.223C376.865 220.332 376.864 220.445 376.884 220.555C376.905 220.665 376.947 220.77 377.008 220.864C377.07 220.957 377.149 221.038 377.242 221.1C377.334 221.163 377.438 221.206 377.548 221.228L408.51 227.659C408.731 227.705 408.961 227.662 409.149 227.538C409.338 227.414 409.469 227.221 409.515 227L411.704 216.463C411.75 216.242 411.706 216.012 411.582 215.823C411.459 215.635 411.265 215.503 411.045 215.457L380.083 209.026C379.973 209.003 379.86 209.001 379.751 209.021C379.641 209.042 379.536 209.084 379.442 209.146C379.349 209.207 379.268 209.286 379.206 209.379C379.143 209.472 379.1 209.576 379.078 209.686L376.889 220.223ZM292.663 373.815C292.64 373.924 292.639 374.036 292.66 374.145C292.681 374.255 292.724 374.359 292.785 374.452C292.846 374.545 292.926 374.624 293.018 374.686C293.11 374.749 293.214 374.792 293.323 374.814L324.285 381.245C324.505 381.29 324.734 381.247 324.922 381.125C325.11 381.003 325.242 380.811 325.289 380.591L327.478 370.054C327.522 369.833 327.477 369.604 327.354 369.416C327.231 369.228 327.038 369.096 326.818 369.049L295.856 362.618C295.636 362.572 295.406 362.616 295.218 362.739C295.029 362.863 294.897 363.056 294.852 363.277L292.663 373.815ZM298.342 346.475C298.318 346.585 298.316 346.698 298.337 346.808C298.357 346.918 298.399 347.023 298.461 347.116C298.522 347.21 298.601 347.29 298.694 347.353C298.787 347.415 298.891 347.459 299.001 347.481L329.963 353.912C330.183 353.958 330.413 353.914 330.602 353.79C330.79 353.667 330.922 353.473 330.968 353.252L333.161 342.69C333.207 342.469 333.164 342.24 333.04 342.051C332.916 341.863 332.723 341.731 332.502 341.685L301.54 335.254C301.431 335.23 301.318 335.229 301.208 335.249C301.098 335.27 300.993 335.312 300.9 335.373C300.806 335.435 300.726 335.514 300.663 335.607C300.601 335.699 300.557 335.804 300.535 335.913L298.342 346.475ZM304.019 319.142C303.973 319.363 304.017 319.593 304.14 319.782C304.264 319.97 304.457 320.102 304.678 320.148L335.64 326.579C335.861 326.623 336.09 326.578 336.278 326.455C336.466 326.332 336.598 326.139 336.645 325.919L338.84 315.351C338.884 315.13 338.84 314.901 338.716 314.713C338.593 314.525 338.401 314.393 338.181 314.346L307.219 307.915C306.998 307.869 306.768 307.913 306.58 308.036C306.392 308.16 306.26 308.353 306.214 308.574L304.019 319.142ZM309.698 291.803C309.674 291.913 309.672 292.026 309.693 292.136C309.713 292.246 309.756 292.35 309.817 292.444C309.878 292.537 309.957 292.618 310.05 292.68C310.143 292.743 310.247 292.787 310.357 292.808L341.319 299.24C341.539 299.286 341.769 299.242 341.958 299.118C342.146 298.994 342.278 298.801 342.324 298.58L344.511 288.049C344.557 287.828 344.513 287.598 344.39 287.41C344.266 287.221 344.073 287.09 343.852 287.044L312.89 280.613C312.781 280.589 312.668 280.587 312.558 280.608C312.448 280.628 312.343 280.671 312.25 280.732C312.156 280.793 312.076 280.873 312.013 280.965C311.951 281.058 311.907 281.162 311.885 281.272L309.698 291.803ZM315.375 264.47C315.329 264.691 315.373 264.921 315.496 265.109C315.62 265.298 315.813 265.43 316.034 265.475L346.996 271.907C347.217 271.951 347.446 271.906 347.634 271.783C347.822 271.66 347.954 271.467 348.001 271.247L350.196 260.679C350.24 260.459 350.195 260.23 350.072 260.043C349.948 259.856 349.755 259.726 349.536 259.68L318.574 253.249C318.465 253.225 318.353 253.224 318.243 253.244C318.134 253.264 318.029 253.306 317.936 253.366C317.843 253.427 317.762 253.506 317.7 253.598C317.637 253.69 317.593 253.793 317.57 253.902L315.375 264.47ZM321.052 237.137C321.03 237.246 321.029 237.359 321.05 237.468C321.071 237.577 321.113 237.682 321.175 237.774C321.236 237.867 321.315 237.947 321.408 238.009C321.5 238.071 321.604 238.115 321.713 238.136L352.675 244.568C352.894 244.613 353.123 244.57 353.311 244.448C353.499 244.325 353.631 244.134 353.678 243.914L355.874 233.346C355.918 233.125 355.873 232.896 355.75 232.708C355.627 232.52 355.434 232.388 355.215 232.341L324.252 225.91C324.032 225.864 323.802 225.907 323.614 226.031C323.425 226.155 323.293 226.348 323.248 226.569L321.052 237.137ZM326.731 209.798C326.708 209.908 326.706 210.021 326.726 210.13C326.747 210.24 326.789 210.345 326.85 210.439C326.912 210.532 326.991 210.613 327.084 210.675C327.176 210.738 327.281 210.781 327.39 210.803L358.352 217.235C358.573 217.28 358.803 217.237 358.991 217.113C359.18 216.989 359.311 216.796 359.357 216.575L361.545 206.044C361.59 205.823 361.547 205.593 361.423 205.405C361.3 205.216 361.106 205.084 360.886 205.039L329.923 198.607C329.814 198.584 329.701 198.582 329.591 198.603C329.481 198.623 329.377 198.665 329.283 198.727C329.19 198.788 329.109 198.868 329.047 198.96C328.984 199.053 328.941 199.157 328.919 199.267L326.731 209.798ZM219.259 358.561C219.215 358.781 219.26 359.01 219.383 359.197C219.507 359.384 219.7 359.515 219.919 359.56L250.881 365.991C250.99 366.015 251.102 366.017 251.212 365.996C251.321 365.976 251.426 365.934 251.519 365.874C251.612 365.813 251.693 365.734 251.755 365.642C251.818 365.55 251.862 365.447 251.885 365.338L254.072 354.807C254.118 354.586 254.074 354.356 253.951 354.168C253.827 353.979 253.634 353.847 253.413 353.802L222.451 347.37C222.231 347.326 222.002 347.371 221.814 347.494C221.626 347.618 221.494 347.81 221.446 348.03L219.259 358.561ZM224.938 331.222C224.892 331.443 224.935 331.673 225.059 331.861C225.183 332.05 225.376 332.181 225.597 332.227L256.559 338.658C256.668 338.682 256.781 338.684 256.891 338.663C257.001 338.643 257.105 338.6 257.199 338.539C257.292 338.478 257.373 338.398 257.435 338.306C257.498 338.213 257.542 338.109 257.563 337.999L259.756 327.443C259.78 327.334 259.781 327.221 259.761 327.111C259.74 327.001 259.698 326.896 259.637 326.802C259.575 326.709 259.496 326.628 259.403 326.566C259.311 326.503 259.207 326.46 259.097 326.438L228.135 320.007C227.914 319.961 227.684 320.005 227.496 320.128C227.308 320.252 227.176 320.445 227.13 320.666L224.938 331.222ZM230.615 303.889C230.571 304.11 230.615 304.339 230.738 304.527C230.862 304.715 231.054 304.847 231.274 304.894L262.236 311.325C262.457 311.371 262.686 311.328 262.875 311.204C263.063 311.08 263.195 310.887 263.241 310.666L265.435 300.104C265.481 299.883 265.437 299.653 265.313 299.465C265.19 299.276 264.996 299.144 264.776 299.099L233.814 292.667C233.593 292.623 233.364 292.668 233.176 292.791C232.988 292.915 232.856 293.107 232.809 293.327L230.615 303.889ZM236.294 276.55C236.248 276.771 236.291 277.001 236.415 277.189C236.539 277.378 236.732 277.509 236.953 277.555L267.915 283.986C268.131 284.03 268.355 283.986 268.54 283.866C268.725 283.746 268.855 283.558 268.903 283.343L271.093 272.799C271.117 272.69 271.119 272.577 271.098 272.467C271.078 272.357 271.036 272.252 270.974 272.158C270.913 272.065 270.834 271.985 270.741 271.922C270.648 271.859 270.544 271.816 270.434 271.794L239.472 265.363C239.252 265.317 239.022 265.361 238.833 265.484C238.645 265.608 238.513 265.802 238.467 266.022L236.294 276.55ZM241.971 249.217C241.927 249.437 241.971 249.667 242.095 249.855C242.218 250.043 242.41 250.175 242.63 250.222L273.592 256.653C273.813 256.699 274.043 256.655 274.231 256.532C274.419 256.408 274.551 256.214 274.597 255.994L276.791 245.432C276.813 245.323 276.814 245.21 276.793 245.101C276.772 244.992 276.73 244.887 276.669 244.795C276.607 244.702 276.528 244.622 276.436 244.56C276.343 244.498 276.24 244.455 276.13 244.433L245.168 238.001C244.949 237.956 244.72 237.999 244.532 238.121C244.344 238.244 244.212 238.436 244.165 238.655L241.971 249.217ZM247.648 221.884C247.604 222.104 247.649 222.332 247.773 222.52C247.897 222.707 248.089 222.837 248.309 222.883L279.271 229.314C279.38 229.338 279.492 229.339 279.601 229.319C279.711 229.299 279.815 229.257 279.909 229.196C280.002 229.136 280.082 229.057 280.145 228.965C280.208 228.873 280.252 228.77 280.274 228.661L282.468 218.099C282.514 217.878 282.47 217.648 282.347 217.46C282.223 217.271 282.03 217.139 281.809 217.094L250.847 210.662C250.627 210.618 250.398 210.663 250.21 210.786C250.022 210.91 249.89 211.102 249.842 211.322L247.648 221.884ZM253.327 194.545C253.304 194.654 253.303 194.767 253.324 194.876C253.345 194.986 253.387 195.091 253.449 195.184C253.51 195.277 253.589 195.358 253.681 195.42C253.773 195.483 253.877 195.527 253.986 195.55L284.948 201.981C285.164 202.024 285.389 201.981 285.574 201.861C285.758 201.741 285.889 201.553 285.937 201.338L288.127 190.794C288.151 190.685 288.152 190.572 288.132 190.462C288.111 190.352 288.069 190.247 288.008 190.153C287.946 190.06 287.867 189.979 287.774 189.917C287.682 189.854 287.578 189.811 287.468 189.789L256.506 183.358C256.285 183.312 256.055 183.356 255.867 183.479C255.678 183.603 255.547 183.796 255.501 184.017L253.327 194.545Z" fill="#F2F2F2"/>
<path id="Vector_2" d="M20.5332 362.158C20.313 363.219 20.0927 364.279 19.9427 365.341C19.2529 369.454 18.9 373.616 18.8878 377.786C18.8244 398.426 27.3186 416.244 41.0607 423.839C43.7927 425.356 46.7382 426.451 49.7975 427.088C72.4335 431.79 96.0311 410.321 102.499 379.183C108.966 348.046 95.8706 318.956 73.2345 314.254C52.0036 309.844 29.9199 328.45 21.9274 356.498C21.3963 358.343 20.9328 360.234 20.5332 362.158Z" fill="#36334A"/>
<path id="Vector_3" opacity="0.1" d="M19.9416 365.348C19.2517 369.46 18.8989 373.623 18.8866 377.793C18.8232 398.432 27.3174 416.25 41.0595 423.845C53.5172 420.972 66.0293 403.105 70.8909 379.699C76.585 352.286 69.6146 327.658 55.3169 324.688C43.3179 322.196 29.9676 335.773 22.6231 356.43C21.6106 359.262 20.7129 362.253 19.9416 365.348Z" fill="black"/>
<path id="Vector_4" d="M252.306 280.056C252.306 280.056 146.114 234.201 83.2128 243.003C83.2128 243.003 73.6884 245.527 80.7795 254.718C80.7795 254.718 70.8269 261.656 84.435 267.698L140.317 282.94L249.36 294.237L252.306 280.056Z" fill="#3F3D56"/>
<path id="Vector_5" opacity="0.1" d="M232.298 278.891C232.298 278.891 141.38 239.63 87.5234 247.166C87.5234 247.166 79.3595 249.33 85.4396 257.198C85.4396 257.198 76.9203 263.147 88.5697 268.313L136.415 281.357L229.773 291.043L232.298 278.891Z" fill="black"/>
<path id="Vector_6" d="M117.051 290.553L127.52 277.291C127.52 277.291 127.388 261.647 154.655 262.718C157.472 256.492 165.114 252.94 173.058 254.591C180.811 256.201 186.321 262.234 186.691 268.871C190.407 269.984 194.345 271.265 198.537 272.747L197.848 306.332L198.913 304.984C198.913 304.984 198.759 286.505 233.789 291.086C232.382 288.416 231.94 285.341 232.537 282.381C234.164 274.545 242.798 269.72 251.814 271.592C260.83 273.465 266.827 281.329 265.2 289.166C264.507 292.38 262.643 295.222 259.97 297.136C263.131 298.114 266.451 299.215 269.93 300.439L269.152 338.226L236.826 336.013L188.444 318.245L194.7 310.315L165.434 308.314L117.051 290.553Z" fill="#6C63FF"/>
<path id="Vector_7" opacity="0.2" d="M117.051 290.553L127.52 277.291C127.52 277.291 127.388 261.647 154.655 262.718C157.472 256.492 165.114 252.94 173.058 254.591C180.811 256.201 186.321 262.234 186.691 268.871C190.407 269.984 194.345 271.265 198.537 272.747L197.848 306.332L198.913 304.984C198.913 304.984 198.759 286.505 233.789 291.086C232.382 288.416 231.94 285.341 232.537 282.381C234.164 274.545 242.798 269.72 251.814 271.592C260.83 273.465 266.827 281.329 265.2 289.166C264.507 292.38 262.643 295.222 259.97 297.136C263.131 298.114 266.451 299.215 269.93 300.439L269.152 338.226L236.826 336.013L188.444 318.245L194.7 310.315L165.434 308.314L117.051 290.553Z" fill="black"/>
<path id="Vector_8" d="M229.867 279.82C229.867 279.82 240.545 253.172 217.871 247.819C195.197 242.466 194.139 284.697 194.139 284.697C194.139 284.697 176.115 284.812 173.474 291.338C170.832 297.865 231.46 312.387 231.46 312.387L229.867 279.82Z" fill="#6C63FF"/>
<path id="Vector_9" d="M239.545 434.342C232.757 467.02 251.532 498.577 281.483 504.798C311.434 511.019 341.223 489.55 348.011 456.871C354.798 424.193 336.811 387.332 306.853 381.11C276.896 374.887 246.335 401.651 239.545 434.342Z" fill="#36334A"/>
<path id="Vector_10" opacity="0.1" d="M282.893 498.01C259.068 493.061 244.397 466.691 250.126 439.112C255.854 411.533 279.813 393.187 303.638 398.136C327.464 403.085 342.134 429.454 336.405 457.033C330.677 484.613 306.718 502.958 282.893 498.01Z" fill="black"/>
<path id="Vector_11" d="M521.138 548.783C491.186 542.561 472.41 511.017 479.2 478.326C485.99 445.635 515.776 424.178 545.728 430.399C575.68 436.621 594.456 468.165 587.666 500.856C580.875 533.546 551.09 555.004 521.138 548.783Z" fill="#36334A"/>
<path id="Vector_12" d="M470.317 329.199C470.317 329.199 495.329 335.68 491.279 348.989C487.228 362.298 468.94 348.208 468.94 348.208L470.317 329.199Z" fill="#36334A"/>
<path id="Vector_13" d="M255.398 308.13L259.422 236.511C259.422 236.511 258.75 227.367 292.029 234.28C292.029 234.28 400.055 249.643 424.866 266.374C424.866 266.374 453.863 284.617 485.068 354.131C485.068 354.131 258.943 312.725 255.398 308.13Z" fill="#3F3D56"/>
<path id="Vector_14" d="M274.237 236.373L277.589 316.18L289.63 318.379L346.614 328.775L473.71 351.958C475.306 346.038 428.302 271.59 428.302 271.59L274.237 236.373Z" fill="#8CD0F3"/>
<path id="Vector_15" opacity="0.2" d="M346.596 328.771L345.581 307.721C345.581 307.721 356.26 281.067 333.586 275.714C310.912 270.361 309.854 312.591 309.854 312.591C309.854 312.591 293.439 312.7 289.648 318.383L346.596 328.771Z" fill="#6C63FF"/>
<path id="Vector_16" d="M21.1217 357.778C32.2475 322.784 56.959 319.878 56.959 319.878C79.4013 323.253 76.6463 410.796 76.6463 410.796L244.155 461.67C244.155 461.67 253.22 388.622 296.944 385.484C340.669 382.345 333.972 468.749 333.387 480.848C332.803 492.947 582.621 531.33 590.425 527.806C598.229 524.281 605.625 476.293 604.545 472.209C603.464 468.126 601.992 450.454 601.992 450.454C602.817 446.483 601.961 441.07 601.107 437.258C600.51 434.562 599.903 432.654 599.903 432.654C600.859 401.157 574.58 388.025 572.814 387.15L572.716 387.13C566.857 378.194 499.474 359.053 499.474 359.053L474.615 348.744L263.314 309.17L254.322 307.488L148.405 280.117L76.7773 261.605C60.1377 258.149 42.8009 298.284 42.8009 298.284C19.7096 332.079 21.1217 357.778 21.1217 357.778Z" fill="#2856B8"/>
<path id="Vector_17" opacity="0.1" d="M375.603 393.529C360.707 383.608 353.666 368.002 359.876 358.67C366.086 349.339 383.195 349.817 398.091 359.738C412.987 369.659 420.028 385.265 413.818 394.596C407.608 403.928 390.498 403.45 375.603 393.529Z" fill="black"/>
<path id="Vector_18" d="M377.347 391.316C362.451 381.395 355.41 365.788 361.62 356.457C367.83 347.126 384.94 347.604 399.836 357.525C414.732 367.445 421.773 383.052 415.563 392.383C409.353 401.714 392.243 401.237 377.347 391.316Z" fill="#F2F2F2"/>
<path id="Vector_19" opacity="0.1" d="M571.32 388.152C570.226 394.999 571.486 404.189 575.24 413.568C581.279 428.663 591.717 438.98 599.618 438.235C599.021 435.539 598.414 433.631 598.414 433.631C599.37 402.134 573.092 389.002 571.32 388.152Z" fill="black"/>
<path id="Vector_20" d="M573.425 387.303C572.331 394.15 573.591 403.339 577.345 412.719C583.384 427.814 593.822 438.131 601.723 437.386C601.126 434.69 600.519 432.782 600.519 432.782C601.475 401.284 575.197 388.153 573.425 387.303Z" fill="#F2F2F2"/>
<path id="Vector_21" d="M483.212 387.827L531.898 397.94L535.772 391.67L476.609 379.381L483.212 387.827Z" fill="#36334A"/>
<path id="Vector_22" d="M483.931 440.075L564.047 456.716L559.181 480.146L479.064 463.505L483.931 440.075Z" fill="#36334A"/>
<path id="Vector_23" opacity="0.1" d="M388.046 468.397C381.919 467.124 377.985 461.124 379.258 454.994C380.531 448.865 386.53 444.927 392.656 446.2C398.783 447.472 402.717 453.473 401.444 459.602C400.171 465.732 394.172 469.669 388.046 468.397Z" fill="black"/>
<path id="Vector_24" d="M389.663 466.803C383.537 465.53 379.602 459.53 380.875 453.4C382.148 447.271 388.147 443.334 394.274 444.606C400.4 445.879 404.335 451.879 403.061 458.009C401.788 464.138 395.79 468.076 389.663 466.803Z" fill="#F2F2F2"/>
<path id="Vector_25" opacity="0.1" d="M591.235 502.24C588.172 501.604 586.778 495.843 588.122 489.373C589.466 482.903 593.039 478.174 596.102 478.81C599.165 479.447 600.559 485.207 599.215 491.677C597.871 498.147 594.298 502.877 591.235 502.24Z" fill="black"/>
<path id="Vector_26" d="M593.212 502.008C590.149 501.371 588.755 495.611 590.099 489.141C591.443 482.671 595.016 477.941 598.079 478.578C601.142 479.214 602.536 484.975 601.192 491.445C599.848 497.915 596.275 502.644 593.212 502.008Z" fill="#F2F2F2"/>
<path id="Vector_27" d="M117.178 339.461C119.603 361.833 113.431 394.639 113.431 394.639L114.104 403.784L231.461 442.31C231.461 442.31 243.396 381.757 247.438 353.011C250.294 332.733 258.637 316.797 263.314 309.169L254.322 307.488L148.405 280.117C127.929 288.94 115.006 319.373 117.178 339.461Z" fill="#2856B8"/>
<path id="Vector_28" d="M152.429 307.356C152.844 307.471 153.23 307.672 153.563 307.946C153.896 308.219 154.168 308.559 154.361 308.944C154.555 309.329 154.666 309.75 154.688 310.18C154.709 310.611 154.64 311.041 154.486 311.443C154.355 311.779 154.144 312.078 153.871 312.314C153.598 312.55 153.271 312.716 152.919 312.796C150.722 313.375 137.935 308.397 133.096 306.466C132.378 306.191 131.771 305.686 131.37 305.029C130.969 304.372 130.797 303.6 130.881 302.835C131.001 301.947 131.476 301.267 132.758 301.533L152.429 307.356Z" fill="#F2F2F2"/>
<path id="Vector_29" d="M264.079 306.942C264.079 306.942 258.18 319.867 244.286 312.479L243.326 292.341L254.339 288.84L264.079 306.942Z" fill="#36334A"/>
<path id="Vector_30" d="M251.687 275.637C245.743 270.209 235.719 264.461 223.329 270.692C220.751 271.981 218.682 274.1 217.454 276.708C216.225 279.315 215.909 282.261 216.556 285.069C218.472 293.333 225.036 303.232 246.367 297.442C248.461 296.874 250.375 295.779 251.926 294.262L252.056 294.135C253.283 292.916 254.25 291.461 254.899 289.857C255.547 288.254 255.864 286.536 255.829 284.806C255.795 283.077 255.41 281.373 254.698 279.797C253.986 278.221 252.962 276.806 251.687 275.637V275.637Z" fill="#36334A"/>
<path id="Vector_31" d="M290.973 457.56C284.166 456.146 279.795 449.478 281.209 442.668C282.624 435.857 289.289 431.482 296.096 432.896C302.904 434.31 307.275 440.978 305.86 447.788C304.446 454.599 297.781 458.974 290.973 457.56Z" fill="#F2F2F2"/>
<path id="Vector_32" d="M41.06 382.495C37.316 381.717 35.4276 375.566 36.8423 368.755C38.2569 361.945 42.4388 357.054 46.1828 357.832C49.9268 358.609 51.8151 364.761 50.4005 371.571C48.9858 378.382 44.8039 383.272 41.06 382.495Z" fill="#F2F2F2"/>
<path id="Vector_33" d="M301.103 407.244L302.336 407.5C306.42 408.349 309.043 412.349 308.194 416.435L306.785 423.218C305.937 427.304 301.937 429.929 297.853 429.081L296.62 428.825C292.536 427.976 289.913 423.976 290.762 419.89L292.171 413.107C293.02 409.021 297.019 406.396 301.103 407.244Z" fill="#36334A"/>
<path id="Vector_34" d="M51.818 330.702C51.2515 330.584 50.6673 330.579 50.0989 330.688C49.5304 330.796 48.9888 331.015 48.505 331.333C48.0211 331.65 47.6045 332.06 47.279 332.539C46.9534 333.017 46.7252 333.555 46.6075 334.122L44.5584 343.987C44.1508 345.95 44.539 347.993 45.6377 349.669C46.7364 351.345 48.4555 352.515 50.4169 352.922C51.561 353.16 52.7528 352.933 53.7299 352.292C54.7071 351.651 55.3896 350.647 55.6274 349.502L57.6765 339.637C58.0841 337.675 57.6959 335.631 56.5972 333.955C55.4985 332.28 53.7794 331.109 51.818 330.702V330.702Z" fill="#36334A"/>
<path id="Vector_35" d="M35.4234 409.63C37.3847 410.038 39.4277 409.649 41.1028 408.549C42.778 407.45 43.948 405.73 44.3556 403.768L45.7644 396.985C46.172 395.023 45.7838 392.979 44.6851 391.303C43.5864 389.628 41.8673 388.457 39.9059 388.05V388.05C35.8384 387.205 35.5166 390.612 34.6713 394.681L33.2625 401.463C32.4234 405.534 31.3436 408.783 35.4234 409.63Z" fill="#36334A"/>
<path id="Vector_36" d="M64.415 362.905C62.4536 362.498 60.4106 362.886 58.7355 363.986C57.0604 365.085 55.8904 366.806 55.4828 368.768L53.5617 378.017C53.2899 379.325 53.5488 380.687 54.2812 381.804C55.0137 382.922 56.1598 383.702 57.4673 383.973C59.4287 384.381 61.4717 383.992 63.1468 382.892C64.8219 381.793 65.992 380.073 66.3996 378.11L68.3206 368.862C68.5924 367.554 68.3335 366.191 67.6011 365.074C66.8686 363.957 65.7226 363.177 64.415 362.905Z" fill="#36334A"/>
<path id="Vector_37" d="M20.5334 362.158C20.3131 363.218 20.0928 364.279 19.9429 365.341C19.253 369.454 18.9001 373.616 18.8879 377.786C19.2809 377.94 19.6859 378.06 20.0987 378.147C22.06 378.555 24.103 378.166 25.7781 377.066C27.4533 375.967 28.6233 374.247 29.0309 372.284L30.4397 365.502C30.8473 363.54 30.4591 361.496 29.3604 359.82C28.2617 358.145 26.5426 356.974 24.5812 356.567C23.9362 356.431 23.276 356.383 22.6182 356.423C22.3835 356.438 22.1476 356.46 21.9214 356.497C21.3964 358.343 20.9329 360.234 20.5334 362.158Z" fill="#36334A"/>
<path id="Vector_38" d="M264.538 426.984L265.771 427.24C269.855 428.089 272.478 432.089 271.629 436.176L270.22 442.958C269.372 447.044 265.372 449.669 261.288 448.821L260.056 448.565C255.971 447.716 253.348 443.716 254.197 439.63L255.606 432.847C256.455 428.761 260.454 426.136 264.538 426.984Z" fill="#36334A"/>
<path id="Vector_39" d="M324.934 439.529L326.166 439.785C330.251 440.634 332.873 444.634 332.025 448.72L330.616 455.503C329.767 459.589 325.768 462.214 321.684 461.366L320.451 461.11C316.367 460.261 313.744 456.261 314.593 452.175L316.001 445.392C316.85 441.306 320.849 438.681 324.934 439.529Z" fill="#36334A"/>
<path id="Vector_40" d="M288.692 465.447L289.925 465.703C294.009 466.552 296.632 470.552 295.783 474.638L294.375 481.421C293.526 485.507 289.527 488.132 285.442 487.283L284.21 487.027C280.125 486.179 277.503 482.179 278.351 478.092L279.76 471.31C280.609 467.224 284.608 464.599 288.692 465.447Z" fill="#36334A"/>
<path id="Vector_41" d="M130.057 151.31C129.816 152.487 129.782 153.697 129.957 154.885C130.252 156.993 131.184 158.961 132.627 160.525C134.07 162.089 135.957 163.175 138.034 163.637C140.111 164.1 142.28 163.916 144.251 163.112C146.221 162.307 147.899 160.92 149.061 159.136C149.77 158.054 150.269 156.849 150.532 155.582C151.096 152.868 150.558 150.041 149.039 147.723C147.519 145.405 145.141 143.786 142.427 143.222C139.714 142.659 136.888 143.196 134.571 144.717C132.254 146.238 130.635 148.618 130.071 151.332L130.057 151.31Z" fill="#FF6584"/>
<path id="Vector_42" d="M147.928 157.685C148.824 156.645 149.507 155.439 149.937 154.135C150.367 152.832 150.536 151.456 150.435 150.087C150.334 148.718 149.964 147.382 149.346 146.157C148.729 144.931 147.877 143.838 146.837 142.942C145.831 142.058 144.662 141.379 143.396 140.941C144.816 141.184 146.17 141.717 147.374 142.509C148.578 143.3 149.605 144.332 150.391 145.54C151.177 146.748 151.705 148.105 151.941 149.527C152.178 150.948 152.118 152.404 151.765 153.801C151.413 155.198 150.775 156.508 149.893 157.647C149.01 158.787 147.902 159.731 146.637 160.421C145.372 161.112 143.979 161.533 142.544 161.659C141.108 161.784 139.663 161.612 138.298 161.152C140.065 161.449 141.88 161.287 143.566 160.68C145.253 160.073 146.755 159.041 147.928 157.685V157.685Z" fill="#FF6584"/>
<path id="Vector_43" d="M122.707 164.654L150.113 170.347L141.229 213.119L113.823 207.426L122.707 164.654Z" fill="#FF6584"/>
<path id="Vector_44" opacity="0.1" d="M122.347 163.293L149.753 168.985L140.869 211.758L113.463 206.065L122.347 163.293Z" fill="black"/>
<path id="Vector_45" d="M161.199 334.525C161.199 334.525 162.455 343.147 169.161 345.711C175.867 348.275 179.502 350.895 179.502 350.895L160.858 358.078L152.316 355.159C152.316 355.159 153.579 343.6 150.456 340.282C147.333 336.964 161.199 334.525 161.199 334.525Z" fill="#FBBEBE"/>
<path id="Vector_46" d="M42.4291 309.855C42.4291 309.855 37.843 317.264 30.6706 316.945C23.4982 316.626 19.1047 317.598 19.1047 317.598L33.3456 331.612L42.3432 332.336C42.3432 332.336 45.788 321.23 49.9741 319.43C54.1601 317.63 42.4291 309.855 42.4291 309.855Z" fill="#FBBEBE"/>
<path id="Vector_47" d="M137.178 255.557C137.178 255.557 141.11 258.663 141.66 263.351C141.66 263.351 149.14 267.574 152.109 275.439C152.109 275.439 156.374 282.422 156.499 285.503C156.624 288.584 161.375 307.896 161.375 307.896C161.375 307.896 164.081 337.053 167.861 340.894C167.861 340.894 154.584 335.081 149.141 348.441C149.141 348.441 145.85 347.758 144.853 334.204C143.856 320.651 138.357 303.114 138.357 303.114C138.357 303.114 137.708 291.537 135.53 289.181C133.351 286.825 131.08 277.58 126.971 279.01C122.862 280.44 99.2766 272.878 99.2766 272.878C99.2766 272.878 83.6616 276.497 82.3862 280.812C81.1107 285.126 78.4727 284.951 77.3496 288.532C76.2266 292.113 56.7065 318.185 56.7065 318.185C56.7065 318.185 52.4839 325.669 51.3725 327.368C51.3725 327.368 47.3541 306.324 34.4831 315.087C34.4831 315.087 36.3656 307.85 40.571 304.131C44.7763 300.412 66.1597 269.022 66.1597 269.022C66.1597 269.022 68.6832 264.208 70.4473 263.05C72.2115 261.892 85.9682 252.548 89.9802 253.382C89.9802 253.382 93.314 248.35 96.0227 248.153L137.178 255.557Z" fill="#696880"/>
<path id="Vector_48" d="M151.384 352.316C154 354.055 157.023 355.087 160.158 355.309C163.292 355.532 166.431 354.938 169.268 353.586C172.029 352.253 174.951 351.284 177.96 350.703C182.156 349.941 187.039 349.74 187.904 352.659C189.476 357.938 153.427 362.658 153.427 362.658C153.427 362.658 149.578 359.183 151.384 352.316Z" fill="#696880"/>
<path id="Vector_49" d="M44.3288 330.079C41.2355 330.633 38.0518 330.375 35.0881 329.331C32.1243 328.287 29.4817 326.493 27.4179 324.123C25.4165 321.8 23.1222 319.747 20.5925 318.016C17.0475 315.646 12.649 313.517 10.6921 315.85C7.14842 320.067 38.3358 338.752 38.3358 338.752C38.3358 338.752 43.2503 337.097 44.3288 330.079Z" fill="#696880"/>
<path id="Vector_50" d="M137.724 192.947C137.602 194.247 137.729 195.708 138.673 196.611C139.445 197.35 140.577 197.534 141.555 197.962C142.575 198.452 143.464 199.176 144.152 200.074C144.84 200.972 145.307 202.02 145.515 203.133C145.903 205.372 145.59 207.677 144.62 209.732C144.16 210.745 143.632 211.725 143.04 212.665C141.331 215.475 139.413 218.209 136.891 220.322C134.766 221.969 132.468 223.381 130.038 224.533C128.517 225.323 126.948 226.129 125.242 226.296C124.094 226.358 122.943 226.272 121.817 226.041C120.417 225.821 118.935 225.558 117.876 224.618C116.249 223.167 116.185 220.69 115.579 218.596C115.056 216.809 114.068 215.189 113.614 213.384C113.318 211.98 113.185 210.548 113.215 209.114L113.085 201.169C113.04 198.291 113.118 195.066 115.162 193.027C115.311 192.854 115.502 192.724 115.716 192.647C116.036 192.588 116.366 192.621 116.667 192.741C118.605 193.282 120.659 193.241 122.574 192.624C122.874 192.546 123.154 192.407 123.398 192.216C123.731 191.878 123.974 191.462 124.106 191.006C124.468 190.099 124.924 189.233 125.466 188.42C125.633 188.125 125.877 187.88 126.172 187.712C126.467 187.601 126.783 187.563 127.095 187.601C129.823 187.719 132.541 187.991 135.238 188.418C136.127 188.564 137.519 188.486 137.957 189.381C138.394 190.276 137.817 192.002 137.724 192.947Z" fill="#FBBEBE"/>
<path id="Vector_51" opacity="0.1" d="M137.724 192.947C137.602 194.247 137.729 195.708 138.673 196.611C139.445 197.35 140.577 197.534 141.555 197.962C142.575 198.452 143.464 199.176 144.152 200.074C144.84 200.972 145.307 202.02 145.515 203.133C145.903 205.372 145.59 207.677 144.62 209.732C144.16 210.745 143.632 211.725 143.04 212.665C141.331 215.475 139.413 218.209 136.891 220.322C134.766 221.969 132.468 223.381 130.038 224.533C128.517 225.323 126.948 226.129 125.242 226.296C124.094 226.358 122.943 226.272 121.817 226.041C120.417 225.821 118.935 225.558 117.876 224.618C116.249 223.167 116.185 220.69 115.579 218.596C115.056 216.809 114.068 215.189 113.614 213.384C113.318 211.98 113.185 210.548 113.215 209.114L113.085 201.169C113.04 198.291 113.118 195.066 115.162 193.027C115.311 192.854 115.502 192.724 115.716 192.647C116.036 192.588 116.366 192.621 116.667 192.741C118.605 193.282 120.659 193.241 122.574 192.624C122.874 192.546 123.154 192.407 123.398 192.216C123.731 191.878 123.974 191.462 124.106 191.006C124.468 190.099 124.924 189.233 125.466 188.42C125.633 188.125 125.877 187.88 126.172 187.712C126.467 187.601 126.783 187.563 127.095 187.601C129.823 187.719 132.541 187.991 135.238 188.418C136.127 188.564 137.519 188.486 137.957 189.381C138.394 190.276 137.817 192.002 137.724 192.947Z" fill="black"/>
<path id="Vector_52" d="M141.766 198.341C143.284 198.212 144.812 198.285 146.311 198.558C149.854 199.204 153.366 201.207 154.807 204.51C155.757 206.873 155.737 209.514 154.752 211.863C153.754 214.19 152.181 216.225 150.181 217.776C149.045 218.572 147.994 219.483 147.045 220.495C145.687 222.142 145.204 224.345 144.532 226.405C142.877 231.277 139.766 235.545 137.883 240.338C136 245.131 135.541 251.056 138.809 255.04C139.358 255.708 140.038 256.428 139.918 257.284C139.73 258.653 137.853 258.868 136.477 258.711C132.36 258.261 128.141 257.777 124.437 255.921C122.9 255.151 121.481 254.155 119.893 253.504C115.859 251.849 111.31 252.577 106.958 252.483C103.817 252.351 100.692 251.962 97.6145 251.321C96.8828 251.235 96.1788 250.99 95.5522 250.603C95.2447 250.402 95.009 250.108 94.8794 249.765C94.7497 249.421 94.7327 249.045 94.8307 248.691C95.0616 248.252 95.4 247.88 95.8141 247.608C98.4797 245.422 99.8491 242.079 101.119 238.876L105.354 228.082C107.635 222.33 109.949 216.051 108.24 210.1C107.007 205.824 103.836 202.335 102.479 198.098C101.959 196.792 101.9 195.348 102.313 194.005C103.029 192.166 105.032 191.161 106.961 190.725C110.662 189.914 114.534 190.573 117.759 192.563C117.143 195.22 117.259 198.061 117.154 200.799L117.003 205.27C116.853 207.891 116.887 210.521 117.104 213.138C117.171 214.178 117.433 215.197 117.876 216.141C118.382 217.009 119.064 217.762 119.879 218.351C121.628 219.707 123.668 220.64 125.838 221.075C126.772 221.289 127.735 221.341 128.686 221.229C130.263 221.003 131.679 220.159 133.046 219.337C133.489 219.094 133.902 218.8 134.276 218.46C134.685 218.008 135.03 217.502 135.302 216.956C136.114 215.552 136.826 214.092 137.431 212.587C137.87 211.431 138.178 210.228 138.515 209.037C139.514 205.591 140.331 201.625 141.766 198.341Z" fill="#F2F2F2"/>
<path id="Vector_53" d="M130.779 269.864C130.779 269.864 128.216 289.54 118.399 290.936C108.582 292.331 120.643 274.621 120.643 274.621L124.78 269.377L130.779 269.864Z" fill="#FBBEBE"/>
<path id="Vector_54" d="M99.7191 263.412C99.7191 263.412 94.2345 282.482 102.684 287.671C111.133 292.861 107.122 271.813 107.122 271.813L105.416 265.354L99.7191 263.412Z" fill="#FBBEBE"/>
<path id="Vector_55" opacity="0.1" d="M152.256 206.829L154.19 212.19C154.19 212.19 148.215 228.109 147.244 230.956C146.494 232.996 145.575 234.969 144.495 236.855C144.495 236.855 142.309 245.554 141.627 248.84C140.944 252.126 137.955 257.23 137.955 257.23C137.054 260.285 135.796 263.223 134.209 265.984C131.912 269.707 129.459 274.15 129.459 274.15C129.459 274.15 128.673 268.648 119.794 274.811C119.152 273.813 118.927 272.602 119.169 271.44C119.41 270.277 120.098 269.256 121.085 268.596C121.085 268.596 125.328 259.187 126.391 254.069C127.454 248.951 136.557 225.308 136.557 225.308C136.557 225.308 144.929 198.059 152.256 206.829Z" fill="black"/>
<path id="Vector_56" d="M153.053 206.615L154.988 211.97C154.988 211.97 149.013 227.889 148.041 230.742C147.288 232.783 146.366 234.758 145.285 236.646C145.285 236.646 143.08 245.341 142.395 248.639C141.71 251.938 138.724 257.029 138.724 257.029C137.82 260.083 136.563 263.021 134.977 265.783C132.681 269.5 130.233 273.95 130.233 273.95C130.233 273.95 129.447 268.449 120.568 274.612C119.924 273.614 119.699 272.403 119.94 271.24C120.182 270.077 120.871 269.056 121.859 268.397C121.859 268.397 126.102 258.987 127.167 253.863C128.231 248.74 137.332 225.102 137.332 225.102C137.332 225.102 145.732 197.878 153.053 206.615Z" fill="#F2F2F2"/>
<path id="Vector_57" opacity="0.1" d="M105.367 194.035L103.066 195.827C103.066 195.827 98.3234 207.828 99.8104 224.531L98.3087 239.096C98.3087 239.096 98.3612 251.688 98.1226 254.693C97.8841 257.699 97.8036 258.055 98.3028 259.304C98.4733 259.607 98.5283 259.961 98.4576 260.301C98.387 260.641 98.1955 260.944 97.9186 261.154L98.4412 269.656C98.4412 269.656 102.567 266.319 108.074 272.801C108.074 272.801 110.531 270.257 109.577 267.389C108.623 264.522 108.876 263.43 109.391 262.778C109.906 262.126 108.842 258.084 108.993 257.357C109.144 256.629 110.081 239.278 110.081 239.278C110.081 239.278 112.401 222.599 112.442 216.89C112.471 213.378 114.052 205.859 115.262 200.592C116.522 195.11 110.482 190.736 105.744 193.798C105.623 193.856 105.495 193.945 105.367 194.035Z" fill="black"/>
<path id="Vector_58" d="M104.434 193.082L102.133 194.874C102.133 194.874 97.3976 206.87 98.8771 223.579L97.3767 238.137C97.3767 238.137 97.4279 250.735 97.1906 253.734C96.9533 256.734 96.8703 257.102 97.377 258.346C97.5435 258.65 97.5963 259.003 97.5259 259.342C97.4554 259.681 97.2664 259.984 96.9928 260.196L97.5156 268.666C97.5156 268.666 101.642 265.329 107.148 271.811C107.148 271.811 109.604 269.273 108.65 266.406C107.697 263.538 107.949 262.446 108.471 261.789C108.994 261.132 107.915 257.1 108.068 256.367C108.22 255.633 109.155 238.288 109.155 238.288C109.155 238.288 111.475 221.609 111.523 215.901C111.57 210.193 115.708 193.893 115.708 193.893C115.708 193.893 110.674 188.666 104.434 193.082Z" fill="#F2F2F2"/>
<path id="Vector_59" d="M129.963 193.046C121.89 191.369 116.705 183.462 118.383 175.385C120.061 167.307 127.966 162.119 136.039 163.796C144.112 165.473 149.297 173.38 147.619 181.457C145.942 189.535 138.037 194.723 129.963 193.046Z" fill="#FBBEBE"/>
<path id="Vector_60" opacity="0.1" d="M129.938 154.881C130.233 156.989 131.165 158.957 132.608 160.521C134.052 162.085 135.938 163.171 138.016 163.633C140.093 164.096 142.262 163.912 144.232 163.108C146.203 162.304 147.881 160.916 149.042 159.132C143.818 155.654 137.557 156.489 137.557 156.489C134.874 154.858 132.314 154.429 129.938 154.881Z" fill="black"/>
<path id="Vector_61" d="M137.404 157.223C137.404 157.223 167.587 153.201 150.701 199.643C150.701 199.643 143.654 202.373 139.434 198.827C139.434 198.827 149.641 166.216 136.543 165.052C123.445 163.888 119.489 193.919 119.489 193.919C119.489 193.919 111.724 194.596 110.377 190.097C109.029 185.598 120.136 146.767 137.404 157.223Z" fill="#FF6584"/>
<path id="Vector_62" opacity="0.1" d="M136.999 162.857C145.983 163.675 143.998 179.271 141.858 188.982C143.757 179.285 144.859 165.808 136.543 165.052C127.193 164.197 122.505 179.277 120.583 187.972C122.146 179.955 126.803 161.929 136.999 162.857Z" fill="black"/>
<path id="Vector_63" opacity="0.1" d="M151.157 197.448C152.664 193.378 153.909 189.215 154.883 184.986C153.881 189.966 152.484 194.86 150.706 199.619C150.706 199.619 143.659 202.349 139.439 198.803C139.439 198.803 139.683 198.03 140.045 196.723C144.264 200.146 151.157 197.448 151.157 197.448Z" fill="black"/>
<path id="Vector_64" opacity="0.1" d="M110.828 187.927C112.09 192.093 118.908 191.798 119.842 191.729C119.603 193.094 119.491 193.913 119.491 193.913C119.491 193.913 111.726 194.59 110.378 190.091C110.095 189.164 110.346 186.778 111.069 183.668C110.707 185.721 110.618 187.233 110.828 187.927Z" fill="black"/>
<path id="Vector_65" d="M-13.2403 408.971C-14.2795 405.494 -11.5663 402.057 -8.78726 399.727C-6.00825 397.397 -2.71807 395.051 -2.03456 391.482C-1.06041 386.359 -5.85125 382.218 -9.64613 378.607C-12.442 375.928 -14.9112 372.928 -17.002 369.669C-17.8936 368.396 -18.556 366.976 -18.9593 365.474C-19.438 363.291 -18.9408 361.021 -18.4307 358.844C-16.732 351.594 -14.86 344.387 -12.8146 337.222" stroke="#3F3D56" stroke-width="4" stroke-miterlimit="10"/>
<path id="Vector_66" d="M-10.7844 377.341C-9.74964 377.607 -8.67269 377.666 -7.61494 377.516C-6.55719 377.365 -5.53939 377.007 -4.61978 376.463C-3.70017 375.919 -2.89678 375.199 -2.25541 374.344C-1.61405 373.489 -1.14734 372.516 -0.881946 371.48C-0.562364 370.247 -0.540825 368.955 -0.819116 367.711C-1.0774 366.548 -1.5863 365.456 -2.31034 364.51C-3.03437 363.564 -3.95604 362.788 -5.01103 362.236L-5.65671 365.53L-6.71339 361.58C-8.80246 361.044 -11.0187 361.361 -12.8745 362.461C-14.7304 363.56 -16.0739 365.352 -16.6097 367.442C-16.8487 368.351 -16.9252 369.295 -16.8356 370.231C-16.6789 371.895 -16.014 373.469 -14.9314 374.741C-13.8488 376.013 -12.4008 376.921 -10.7844 377.341V377.341Z" fill="#6C63FF"/>
<path id="Vector_67" d="M-0.487029 407.864C-0.487029 407.864 -6.72716 406.368 -8.34483 404.623C-9.96249 402.879 -17.3934 399.657 -18.3175 401.722C-19.2415 403.788 -29.995 410.527 -22.9131 412.056C-15.8313 413.584 -6.19841 414.376 -4.06693 413.616C-1.93546 412.856 -0.487029 407.864 -0.487029 407.864Z" fill="#656380"/>
<path id="Vector_68" opacity="0.1" d="M536.854 481.909C525.767 521.237 501.067 495.533 519.88 533.27C526.189 545.903 533.11 559.167 534.295 574.216C535.716 592.565 527.9 608.286 518.419 618.009C501.137 635.728 477.047 638.84 455.714 626.11C437.276 615.131 421.494 593.524 402.918 583.271C371.829 566.117 339.718 583.998 313.994 608.067C295.788 625.099 276.351 646.145 253.78 639.169C237.888 634.256 224.08 615.84 214.528 594.994C209.915 584.894 205.848 573.798 199.293 566.568C195.397 562.269 190.879 559.683 186.368 557.677C145.208 539.374 102.576 565.99 61.8818 544.396C34.3972 529.809 11.947 494.659 -2.39542 455.652C-16.7378 416.645 -23.9969 373.712 -30.1924 331.304C-34.593 301.165 -38.4126 268.765 -30.4777 242.546C18.7449 267.173 -2.28088 267.782 18.7449 267.173C39.7707 266.565 43.1303 268.395 62.8598 283.639C87.5147 302.697 130.666 270.179 157.185 273.604C175.243 275.935 192.221 267.643 209.309 261.9C237.929 252.248 267.749 249.419 297.54 247.097C326.047 244.872 354.838 243.081 383.728 250.188C404.169 255.199 422.434 269.203 442.336 277.122C455.309 282.29 468.205 281.253 480.991 288.845C496.719 298.142 513.149 317.183 514.614 344.061C516.003 369.613 542.737 461.03 536.854 481.909Z" fill="#6C63FF"/>
<path id="software like Aldus PageMaker including versions of Lorem Ipsum." d="M649.354 367.324C647.842 367.324 646.486 367.072 645.286 366.568C644.086 366.04 643.138 365.32 642.442 364.408C641.746 363.472 641.362 362.404 641.29 361.204H644.674C644.77 362.188 645.226 362.992 646.042 363.616C646.882 364.24 647.974 364.552 649.318 364.552C650.566 364.552 651.55 364.276 652.27 363.724C652.99 363.172 653.35 362.476 653.35 361.636C653.35 360.772 652.966 360.136 652.198 359.728C651.43 359.296 650.242 358.876 648.634 358.468C647.17 358.084 645.97 357.7 645.034 357.316C644.122 356.908 643.33 356.32 642.658 355.552C642.01 354.76 641.686 353.728 641.686 352.456C641.686 351.448 641.986 350.524 642.586 349.684C643.186 348.844 644.038 348.184 645.142 347.704C646.246 347.2 647.506 346.948 648.922 346.948C651.106 346.948 652.87 347.5 654.214 348.604C655.558 349.708 656.278 351.22 656.374 353.14H653.098C653.026 352.108 652.606 351.28 651.838 350.656C651.094 350.032 650.086 349.72 648.814 349.72C647.638 349.72 646.702 349.972 646.006 350.476C645.31 350.98 644.962 351.64 644.962 352.456C644.962 353.104 645.166 353.644 645.574 354.076C646.006 354.484 646.534 354.82 647.158 355.084C647.806 355.324 648.694 355.6 649.822 355.912C651.238 356.296 652.39 356.68 653.278 357.064C654.166 357.424 654.922 357.976 655.546 358.72C656.194 359.464 656.53 360.436 656.554 361.636C656.554 362.716 656.254 363.688 655.654 364.552C655.054 365.416 654.202 366.1 653.098 366.604C652.018 367.084 650.77 367.324 649.354 367.324ZM669.782 367.324C667.934 367.324 666.254 366.904 664.742 366.064C663.254 365.224 662.078 364.036 661.214 362.5C660.374 360.94 659.954 359.14 659.954 357.1C659.954 355.084 660.386 353.308 661.25 351.772C662.138 350.212 663.338 349.024 664.85 348.208C666.362 347.368 668.054 346.948 669.926 346.948C671.798 346.948 673.49 347.368 675.002 348.208C676.514 349.024 677.702 350.2 678.566 351.736C679.454 353.272 679.898 355.06 679.898 357.1C679.898 359.14 679.442 360.94 678.53 362.5C677.642 364.036 676.43 365.224 674.894 366.064C673.358 366.904 671.654 367.324 669.782 367.324ZM669.782 364.444C670.958 364.444 672.062 364.168 673.094 363.616C674.126 363.064 674.954 362.236 675.578 361.132C676.226 360.028 676.55 358.684 676.55 357.1C676.55 355.516 676.238 354.172 675.614 353.068C674.99 351.964 674.174 351.148 673.166 350.62C672.158 350.068 671.066 349.792 669.89 349.792C668.69 349.792 667.586 350.068 666.578 350.62C665.594 351.148 664.802 351.964 664.202 353.068C663.602 354.172 663.302 355.516 663.302 357.1C663.302 358.708 663.59 360.064 664.166 361.168C664.766 362.272 665.558 363.1 666.542 363.652C667.526 364.18 668.606 364.444 669.782 364.444ZM692.234 349.972H688.094V367H684.818V349.972H682.262V347.272H684.818V345.868C684.818 343.66 685.382 342.052 686.51 341.044C687.662 340.012 689.498 339.496 692.018 339.496V342.232C690.578 342.232 689.558 342.52 688.958 343.096C688.382 343.648 688.094 344.572 688.094 345.868V347.272H692.234V349.972ZM700.049 349.972V361.6C700.049 362.56 700.253 363.244 700.661 363.652C701.069 364.036 701.777 364.228 702.785 364.228H705.197V367H702.245C700.421 367 699.053 366.58 698.141 365.74C697.229 364.9 696.773 363.52 696.773 361.6V349.972H694.217V347.272H696.773V342.304H700.049V347.272H705.197V349.972H700.049ZM735.447 347.272L729.291 367H725.907L721.155 351.34L716.403 367H713.019L706.827 347.272H710.175L714.711 363.832L719.607 347.272H722.955L727.743 363.868L732.207 347.272H735.447ZM737.474 357.064C737.474 355.048 737.882 353.284 738.698 351.772C739.514 350.236 740.63 349.048 742.046 348.208C743.486 347.368 745.082 346.948 746.834 346.948C748.562 346.948 750.062 347.32 751.334 348.064C752.606 348.808 753.554 349.744 754.178 350.872V347.272H757.49V367H754.178V363.328C753.53 364.48 752.558 365.44 751.262 366.208C749.99 366.952 748.502 367.324 746.798 367.324C745.046 367.324 743.462 366.892 742.046 366.028C740.63 365.164 739.514 363.952 738.698 362.392C737.882 360.832 737.474 359.056 737.474 357.064ZM754.178 357.1C754.178 355.612 753.878 354.316 753.278 353.212C752.678 352.108 751.862 351.268 750.83 350.692C749.822 350.092 748.706 349.792 747.482 349.792C746.258 349.792 745.142 350.08 744.134 350.656C743.126 351.232 742.322 352.072 741.722 353.176C741.122 354.28 740.822 355.576 740.822 357.064C740.822 358.576 741.122 359.896 741.722 361.024C742.322 362.128 743.126 362.98 744.134 363.58C745.142 364.156 746.258 364.444 747.482 364.444C748.706 364.444 749.822 364.156 750.83 363.58C751.862 362.98 752.678 362.128 753.278 361.024C753.878 359.896 754.178 358.588 754.178 357.1ZM766.302 350.476C766.878 349.348 767.694 348.472 768.75 347.848C769.83 347.224 771.138 346.912 772.674 346.912V350.296H771.81C768.138 350.296 766.302 352.288 766.302 356.272V367H763.026V347.272H766.302V350.476ZM794.456 356.38C794.456 357.004 794.42 357.664 794.348 358.36H778.58C778.7 360.304 779.36 361.828 780.56 362.932C781.784 364.012 783.26 364.552 784.988 364.552C786.404 364.552 787.58 364.228 788.516 363.58C789.476 362.908 790.148 362.02 790.532 360.916H794.06C793.532 362.812 792.476 364.36 790.892 365.56C789.308 366.736 787.34 367.324 784.988 367.324C783.116 367.324 781.436 366.904 779.948 366.064C778.484 365.224 777.332 364.036 776.492 362.5C775.652 360.94 775.232 359.14 775.232 357.1C775.232 355.06 775.64 353.272 776.456 351.736C777.272 350.2 778.412 349.024 779.876 348.208C781.364 347.368 783.068 346.948 784.988 346.948C786.86 346.948 788.516 347.356 789.956 348.172C791.396 348.988 792.5 350.116 793.268 351.556C794.06 352.972 794.456 354.58 794.456 356.38ZM791.072 355.696C791.072 354.448 790.796 353.38 790.244 352.492C789.692 351.58 788.936 350.896 787.976 350.44C787.04 349.96 785.996 349.72 784.844 349.72C783.188 349.72 781.772 350.248 780.596 351.304C779.444 352.36 778.784 353.824 778.616 355.696H791.072ZM811.653 340.36V367H808.377V340.36H811.653ZM818.929 344.068C818.305 344.068 817.777 343.852 817.345 343.42C816.913 342.988 816.697 342.46 816.697 341.836C816.697 341.212 816.913 340.684 817.345 340.252C817.777 339.82 818.305 339.604 818.929 339.604C819.529 339.604 820.033 339.82 820.441 340.252C820.873 340.684 821.089 341.212 821.089 341.836C821.089 342.46 820.873 342.988 820.441 343.42C820.033 343.852 819.529 344.068 818.929 344.068ZM820.513 347.272V367H817.237V347.272H820.513ZM837.112 367L829.372 358.288V367H826.096V340.36H829.372V356.02L836.968 347.272H841.54L832.252 357.1L841.576 367H837.112ZM862.624 356.38C862.624 357.004 862.588 357.664 862.516 358.36H846.748C846.868 360.304 847.528 361.828 848.728 362.932C849.952 364.012 851.428 364.552 853.156 364.552C854.572 364.552 855.748 364.228 856.684 363.58C857.644 362.908 858.316 362.02 858.7 360.916H862.228C861.7 362.812 860.644 364.36 859.06 365.56C857.476 366.736 855.508 367.324 853.156 367.324C851.284 367.324 849.604 366.904 848.116 366.064C846.652 365.224 845.5 364.036 844.66 362.5C843.82 360.94 843.4 359.14 843.4 357.1C843.4 355.06 843.808 353.272 844.624 351.736C845.44 350.2 846.58 349.024 848.044 348.208C849.532 347.368 851.236 346.948 853.156 346.948C855.028 346.948 856.684 347.356 858.124 348.172C859.564 348.988 860.668 350.116 861.436 351.556C862.228 352.972 862.624 354.58 862.624 356.38ZM859.24 355.696C859.24 354.448 858.964 353.38 858.412 352.492C857.86 351.58 857.104 350.896 856.144 350.44C855.208 349.96 854.164 349.72 853.012 349.72C851.356 349.72 849.94 350.248 848.764 351.304C847.612 352.36 846.952 353.824 846.784 355.696H859.24ZM891.377 361.42H880.433L878.417 367H874.961L884.033 342.052H887.813L896.849 367H893.393L891.377 361.42ZM890.441 358.756L885.905 346.084L881.369 358.756H890.441ZM904.079 340.36V367H900.803V340.36H904.079ZM908.439 357.064C908.439 355.048 908.847 353.284 909.663 351.772C910.479 350.236 911.595 349.048 913.011 348.208C914.451 347.368 916.059 346.948 917.835 346.948C919.371 346.948 920.799 347.308 922.119 348.028C923.439 348.724 924.447 349.648 925.143 350.8V340.36H928.455V367H925.143V363.292C924.495 364.468 923.535 365.44 922.263 366.208C920.991 366.952 919.503 367.324 917.799 367.324C916.047 367.324 914.451 366.892 913.011 366.028C911.595 365.164 910.479 363.952 909.663 362.392C908.847 360.832 908.439 359.056 908.439 357.064ZM925.143 357.1C925.143 355.612 924.843 354.316 924.243 353.212C923.643 352.108 922.827 351.268 921.795 350.692C920.787 350.092 919.671 349.792 918.447 349.792C917.223 349.792 916.107 350.08 915.099 350.656C914.091 351.232 913.287 352.072 912.687 353.176C912.087 354.28 911.787 355.576 911.787 357.064C911.787 358.576 912.087 359.896 912.687 361.024C913.287 362.128 914.091 362.98 915.099 363.58C916.107 364.156 917.223 364.444 918.447 364.444C919.671 364.444 920.787 364.156 921.795 363.58C922.827 362.98 923.643 362.128 924.243 361.024C924.843 359.896 925.143 358.588 925.143 357.1ZM951.487 347.272V367H948.211V364.084C947.587 365.092 946.711 365.884 945.583 366.46C944.479 367.012 943.255 367.288 941.911 367.288C940.375 367.288 938.995 366.976 937.771 366.352C936.547 365.704 935.575 364.744 934.855 363.472C934.159 362.2 933.811 360.652 933.811 358.828V347.272H937.051V358.396C937.051 360.34 937.543 361.84 938.527 362.896C939.511 363.928 940.855 364.444 942.559 364.444C944.311 364.444 945.691 363.904 946.699 362.824C947.707 361.744 948.211 360.172 948.211 358.108V347.272H951.487ZM964.002 367.324C962.49 367.324 961.134 367.072 959.934 366.568C958.734 366.04 957.786 365.32 957.09 364.408C956.394 363.472 956.01 362.404 955.938 361.204H959.322C959.418 362.188 959.874 362.992 960.69 363.616C961.53 364.24 962.622 364.552 963.966 364.552C965.214 364.552 966.198 364.276 966.918 363.724C967.638 363.172 967.998 362.476 967.998 361.636C967.998 360.772 967.614 360.136 966.846 359.728C966.078 359.296 964.89 358.876 963.282 358.468C961.818 358.084 960.618 357.7 959.682 357.316C958.77 356.908 957.978 356.32 957.306 355.552C956.658 354.76 956.334 353.728 956.334 352.456C956.334 351.448 956.634 350.524 957.234 349.684C957.834 348.844 958.686 348.184 959.79 347.704C960.894 347.2 962.154 346.948 963.57 346.948C965.754 346.948 967.518 347.5 968.862 348.604C970.206 349.708 970.926 351.22 971.022 353.14H967.746C967.674 352.108 967.254 351.28 966.486 350.656C965.742 350.032 964.734 349.72 963.462 349.72C962.286 349.72 961.35 349.972 960.654 350.476C959.958 350.98 959.61 351.64 959.61 352.456C959.61 353.104 959.814 353.644 960.222 354.076C960.654 354.484 961.182 354.82 961.806 355.084C962.454 355.324 963.342 355.6 964.47 355.912C965.886 356.296 967.038 356.68 967.926 357.064C968.814 357.424 969.57 357.976 970.194 358.72C970.842 359.464 971.178 360.436 971.202 361.636C971.202 362.716 970.902 363.688 970.302 364.552C969.702 365.416 968.85 366.1 967.746 366.604C966.666 367.084 965.418 367.324 964.002 367.324ZM1002.2 349.252C1002.2 351.34 1001.48 353.08 1000.04 354.472C998.624 355.84 996.452 356.524 993.524 356.524H988.7V367H985.424V341.908H993.524C996.356 341.908 998.504 342.592 999.968 343.96C1001.46 345.328 1002.2 347.092 1002.2 349.252ZM993.524 353.824C995.348 353.824 996.692 353.428 997.556 352.636C998.42 351.844 998.852 350.716 998.852 349.252C998.852 346.156 997.076 344.608 993.524 344.608H988.7V353.824H993.524ZM1005.05 357.064C1005.05 355.048 1005.46 353.284 1006.27 351.772C1007.09 350.236 1008.2 349.048 1009.62 348.208C1011.06 347.368 1012.66 346.948 1014.41 346.948C1016.14 346.948 1017.64 347.32 1018.91 348.064C1020.18 348.808 1021.13 349.744 1021.75 350.872V347.272H1025.06V367H1021.75V363.328C1021.1 364.48 1020.13 365.44 1018.84 366.208C1017.56 366.952 1016.08 367.324 1014.37 367.324C1012.62 367.324 1011.04 366.892 1009.62 366.028C1008.2 365.164 1007.09 363.952 1006.27 362.392C1005.46 360.832 1005.05 359.056 1005.05 357.064ZM1021.75 357.1C1021.75 355.612 1021.45 354.316 1020.85 353.212C1020.25 352.108 1019.44 351.268 1018.4 350.692C1017.4 350.092 1016.28 349.792 1015.06 349.792C1013.83 349.792 1012.72 350.08 1011.71 350.656C1010.7 351.232 1009.9 352.072 1009.3 353.176C1008.7 354.28 1008.4 355.576 1008.4 357.064C1008.4 358.576 1008.7 359.896 1009.3 361.024C1009.9 362.128 1010.7 362.98 1011.71 363.58C1012.72 364.156 1013.83 364.444 1015.06 364.444C1016.28 364.444 1017.4 364.156 1018.4 363.58C1019.44 362.98 1020.25 362.128 1020.85 361.024C1021.45 359.896 1021.75 358.588 1021.75 357.1ZM1038.74 346.948C1040.44 346.948 1041.93 347.32 1043.2 348.064C1044.5 348.808 1045.46 349.744 1046.08 350.872V347.272H1049.39V367.432C1049.39 369.232 1049.01 370.828 1048.24 372.22C1047.47 373.636 1046.37 374.74 1044.93 375.532C1043.51 376.324 1041.86 376.72 1039.96 376.72C1037.37 376.72 1035.21 376.108 1033.48 374.884C1031.75 373.66 1030.73 371.992 1030.42 369.88H1033.66C1034.02 371.08 1034.76 372.04 1035.89 372.76C1037.02 373.504 1038.38 373.876 1039.96 373.876C1041.76 373.876 1043.22 373.312 1044.35 372.184C1045.5 371.056 1046.08 369.472 1046.08 367.432V363.292C1045.43 364.444 1044.47 365.404 1043.2 366.172C1041.93 366.94 1040.44 367.324 1038.74 367.324C1036.98 367.324 1035.39 366.892 1033.95 366.028C1032.53 365.164 1031.42 363.952 1030.6 362.392C1029.78 360.832 1029.38 359.056 1029.38 357.064C1029.38 355.048 1029.78 353.284 1030.6 351.772C1031.42 350.236 1032.53 349.048 1033.95 348.208C1035.39 347.368 1036.98 346.948 1038.74 346.948ZM1046.08 357.1C1046.08 355.612 1045.78 354.316 1045.18 353.212C1044.58 352.108 1043.76 351.268 1042.73 350.692C1041.72 350.092 1040.61 349.792 1039.38 349.792C1038.16 349.792 1037.04 350.08 1036.04 350.656C1035.03 351.232 1034.22 352.072 1033.62 353.176C1033.02 354.28 1032.72 355.576 1032.72 357.064C1032.72 358.576 1033.02 359.896 1033.62 361.024C1034.22 362.128 1035.03 362.98 1036.04 363.58C1037.04 364.156 1038.16 364.444 1039.38 364.444C1040.61 364.444 1041.72 364.156 1042.73 363.58C1043.76 362.98 1044.58 362.128 1045.18 361.024C1045.78 359.896 1046.08 358.588 1046.08 357.1ZM1072.93 356.38C1072.93 357.004 1072.89 357.664 1072.82 358.36H1057.05C1057.17 360.304 1057.83 361.828 1059.03 362.932C1060.26 364.012 1061.73 364.552 1063.46 364.552C1064.88 364.552 1066.05 364.228 1066.99 363.58C1067.95 362.908 1068.62 362.02 1069 360.916H1072.53C1072 362.812 1070.95 364.36 1069.36 365.56C1067.78 366.736 1065.81 367.324 1063.46 367.324C1061.59 367.324 1059.91 366.904 1058.42 366.064C1056.96 365.224 1055.8 364.036 1054.96 362.5C1054.12 360.94 1053.7 359.14 1053.7 357.1C1053.7 355.06 1054.11 353.272 1054.93 351.736C1055.74 350.2 1056.88 349.024 1058.35 348.208C1059.84 347.368 1061.54 346.948 1063.46 346.948C1065.33 346.948 1066.99 347.356 1068.43 348.172C1069.87 348.988 1070.97 350.116 1071.74 351.556C1072.53 352.972 1072.93 354.58 1072.93 356.38ZM1069.54 355.696C1069.54 354.448 1069.27 353.38 1068.72 352.492C1068.16 351.58 1067.41 350.896 1066.45 350.44C1065.51 349.96 1064.47 349.72 1063.32 349.72C1061.66 349.72 1060.24 350.248 1059.07 351.304C1057.92 352.36 1057.26 353.824 1057.09 355.696H1069.54ZM1102.7 342.088V367H1099.43V348.424L1091.15 367H1088.84L1080.53 348.388V367H1077.25V342.088H1080.78L1090 362.68L1099.21 342.088H1102.7ZM1107.04 357.064C1107.04 355.048 1107.44 353.284 1108.26 351.772C1109.08 350.236 1110.19 349.048 1111.61 348.208C1113.05 347.368 1114.64 346.948 1116.4 346.948C1118.12 346.948 1119.62 347.32 1120.9 348.064C1122.17 348.808 1123.12 349.744 1123.74 350.872V347.272H1127.05V367H1123.74V363.328C1123.09 364.48 1122.12 365.44 1120.82 366.208C1119.55 366.952 1118.06 367.324 1116.36 367.324C1114.61 367.324 1113.02 366.892 1111.61 366.028C1110.19 365.164 1109.08 363.952 1108.26 362.392C1107.44 360.832 1107.04 359.056 1107.04 357.064ZM1123.74 357.1C1123.74 355.612 1123.44 354.316 1122.84 353.212C1122.24 352.108 1121.42 351.268 1120.39 350.692C1119.38 350.092 1118.27 349.792 1117.04 349.792C1115.82 349.792 1114.7 350.08 1113.7 350.656C1112.69 351.232 1111.88 352.072 1111.28 353.176C1110.68 354.28 1110.38 355.576 1110.38 357.064C1110.38 358.576 1110.68 359.896 1111.28 361.024C1111.88 362.128 1112.69 362.98 1113.7 363.58C1114.7 364.156 1115.82 364.444 1117.04 364.444C1118.27 364.444 1119.38 364.156 1120.39 363.58C1121.42 362.98 1122.24 362.128 1122.84 361.024C1123.44 359.896 1123.74 358.588 1123.74 357.1ZM1143.6 367L1135.86 358.288V367H1132.59V340.36H1135.86V356.02L1143.46 347.272H1148.03L1138.74 357.1L1148.07 367H1143.6ZM1169.12 356.38C1169.12 357.004 1169.08 357.664 1169.01 358.36H1153.24C1153.36 360.304 1154.02 361.828 1155.22 362.932C1156.44 364.012 1157.92 364.552 1159.65 364.552C1161.06 364.552 1162.24 364.228 1163.18 363.58C1164.14 362.908 1164.81 362.02 1165.19 360.916H1168.72C1168.19 362.812 1167.14 364.36 1165.55 365.56C1163.97 366.736 1162 367.324 1159.65 367.324C1157.78 367.324 1156.1 366.904 1154.61 366.064C1153.14 365.224 1151.99 364.036 1151.15 362.5C1150.31 360.94 1149.89 359.14 1149.89 357.1C1149.89 355.06 1150.3 353.272 1151.12 351.736C1151.93 350.2 1153.07 349.024 1154.54 348.208C1156.02 347.368 1157.73 346.948 1159.65 346.948C1161.52 346.948 1163.18 347.356 1164.62 348.172C1166.06 348.988 1167.16 350.116 1167.93 351.556C1168.72 352.972 1169.12 354.58 1169.12 356.38ZM1165.73 355.696C1165.73 354.448 1165.46 353.38 1164.9 352.492C1164.35 351.58 1163.6 350.896 1162.64 350.44C1161.7 349.96 1160.66 349.72 1159.5 349.72C1157.85 349.72 1156.43 350.248 1155.26 351.304C1154.1 352.36 1153.44 353.824 1153.28 355.696H1165.73ZM1176.72 350.476C1177.29 349.348 1178.11 348.472 1179.16 347.848C1180.24 347.224 1181.55 346.912 1183.09 346.912V350.296H1182.22C1178.55 350.296 1176.72 352.288 1176.72 356.272V367H1173.44V347.272H1176.72V350.476ZM1198.16 344.068C1197.54 344.068 1197.01 343.852 1196.58 343.42C1196.14 342.988 1195.93 342.46 1195.93 341.836C1195.93 341.212 1196.14 340.684 1196.58 340.252C1197.01 339.82 1197.54 339.604 1198.16 339.604C1198.76 339.604 1199.26 339.82 1199.67 340.252C1200.1 340.684 1200.32 341.212 1200.32 341.836C1200.32 342.46 1200.1 342.988 1199.67 343.42C1199.26 343.852 1198.76 344.068 1198.16 344.068ZM1199.74 347.272V367H1196.47V347.272H1199.74ZM1214.94 346.912C1217.34 346.912 1219.28 347.644 1220.77 349.108C1222.26 350.548 1223 352.636 1223 355.372V367H1219.76V355.84C1219.76 353.872 1219.27 352.372 1218.29 351.34C1217.3 350.284 1215.96 349.756 1214.25 349.756C1212.53 349.756 1211.15 350.296 1210.11 351.376C1209.11 352.456 1208.6 354.028 1208.6 356.092V367H1205.33V347.272H1208.6V350.08C1209.25 349.072 1210.13 348.292 1211.23 347.74C1212.36 347.188 1213.59 346.912 1214.94 346.912ZM1227.13 357.1C1227.13 355.06 1227.54 353.284 1228.35 351.772C1229.17 350.236 1230.3 349.048 1231.74 348.208C1233.2 347.368 1234.87 346.948 1236.74 346.948C1239.17 346.948 1241.16 347.536 1242.72 348.712C1244.3 349.888 1245.35 351.52 1245.85 353.608H1242.32C1241.99 352.408 1241.33 351.46 1240.34 350.764C1239.38 350.068 1238.18 349.72 1236.74 349.72C1234.87 349.72 1233.36 350.368 1232.21 351.664C1231.05 352.936 1230.48 354.748 1230.48 357.1C1230.48 359.476 1231.05 361.312 1232.21 362.608C1233.36 363.904 1234.87 364.552 1236.74 364.552C1238.18 364.552 1239.38 364.216 1240.34 363.544C1241.3 362.872 1241.96 361.912 1242.32 360.664H1245.85C1245.32 362.68 1244.27 364.3 1242.68 365.524C1241.1 366.724 1239.12 367.324 1236.74 367.324C1234.87 367.324 1233.2 366.904 1231.74 366.064C1230.3 365.224 1229.17 364.036 1228.35 362.5C1227.54 360.964 1227.13 359.164 1227.13 357.1ZM1253.5 340.36V367H1250.22V340.36H1253.5ZM1276.58 347.272V367H1273.3V364.084C1272.68 365.092 1271.8 365.884 1270.67 366.46C1269.57 367.012 1268.34 367.288 1267 367.288C1265.46 367.288 1264.08 366.976 1262.86 366.352C1261.64 365.704 1260.66 364.744 1259.94 363.472C1259.25 362.2 1258.9 360.652 1258.9 358.828V347.272H1262.14V358.396C1262.14 360.34 1262.63 361.84 1263.62 362.896C1264.6 363.928 1265.94 364.444 1267.65 364.444C1269.4 364.444 1270.78 363.904 1271.79 362.824C1272.8 361.744 1273.3 360.172 1273.3 358.108V347.272H1276.58ZM1280.88 357.064C1280.88 355.048 1281.29 353.284 1282.11 351.772C1282.92 350.236 1284.04 349.048 1285.46 348.208C1286.9 347.368 1288.5 346.948 1290.28 346.948C1291.82 346.948 1293.24 347.308 1294.56 348.028C1295.88 348.724 1296.89 349.648 1297.59 350.8V340.36H1300.9V367H1297.59V363.292C1296.94 364.468 1295.98 365.44 1294.71 366.208C1293.44 366.952 1291.95 367.324 1290.24 367.324C1288.49 367.324 1286.9 366.892 1285.46 366.028C1284.04 365.164 1282.92 363.952 1282.11 362.392C1281.29 360.832 1280.88 359.056 1280.88 357.064ZM1297.59 357.1C1297.59 355.612 1297.29 354.316 1296.69 353.212C1296.09 352.108 1295.27 351.268 1294.24 350.692C1293.23 350.092 1292.12 349.792 1290.89 349.792C1289.67 349.792 1288.55 350.08 1287.54 350.656C1286.54 351.232 1285.73 352.072 1285.13 353.176C1284.53 354.28 1284.23 355.576 1284.23 357.064C1284.23 358.576 1284.53 359.896 1285.13 361.024C1285.73 362.128 1286.54 362.98 1287.54 363.58C1288.55 364.156 1289.67 364.444 1290.89 364.444C1292.12 364.444 1293.23 364.156 1294.24 363.58C1295.27 362.98 1296.09 362.128 1296.69 361.024C1297.29 359.896 1297.59 358.588 1297.59 357.1ZM1308.13 344.068C1307.5 344.068 1306.98 343.852 1306.54 343.42C1306.11 342.988 1305.9 342.46 1305.9 341.836C1305.9 341.212 1306.11 340.684 1306.54 340.252C1306.98 339.82 1307.5 339.604 1308.13 339.604C1308.73 339.604 1309.23 339.82 1309.64 340.252C1310.07 340.684 1310.29 341.212 1310.29 341.836C1310.29 342.46 1310.07 342.988 1309.64 343.42C1309.23 343.852 1308.73 344.068 1308.13 344.068ZM1309.71 347.272V367H1306.44V347.272H1309.71ZM1324.91 346.912C1327.31 346.912 1329.25 347.644 1330.74 349.108C1332.23 350.548 1332.97 352.636 1332.97 355.372V367H1329.73V355.84C1329.73 353.872 1329.24 352.372 1328.26 351.34C1327.27 350.284 1325.93 349.756 1324.22 349.756C1322.5 349.756 1321.12 350.296 1320.08 351.376C1319.08 352.456 1318.57 354.028 1318.57 356.092V367H1315.3V347.272H1318.57V350.08C1319.22 349.072 1320.1 348.292 1321.2 347.74C1322.33 347.188 1323.56 346.912 1324.91 346.912ZM1346.46 346.948C1348.16 346.948 1349.65 347.32 1350.92 348.064C1352.22 348.808 1353.18 349.744 1353.8 350.872V347.272H1357.11V367.432C1357.11 369.232 1356.73 370.828 1355.96 372.22C1355.19 373.636 1354.09 374.74 1352.65 375.532C1351.23 376.324 1349.58 376.72 1347.68 376.72C1345.09 376.72 1342.93 376.108 1341.2 374.884C1339.47 373.66 1338.45 371.992 1338.14 369.88H1341.38C1341.74 371.08 1342.49 372.04 1343.61 372.76C1344.74 373.504 1346.1 373.876 1347.68 373.876C1349.48 373.876 1350.95 373.312 1352.07 372.184C1353.23 371.056 1353.8 369.472 1353.8 367.432V363.292C1353.15 364.444 1352.19 365.404 1350.92 366.172C1349.65 366.94 1348.16 367.324 1346.46 367.324C1344.71 367.324 1343.11 366.892 1341.67 366.028C1340.25 365.164 1339.14 363.952 1338.32 362.392C1337.51 360.832 1337.1 359.056 1337.1 357.064C1337.1 355.048 1337.51 353.284 1338.32 351.772C1339.14 350.236 1340.25 349.048 1341.67 348.208C1343.11 347.368 1344.71 346.948 1346.46 346.948ZM1353.8 357.1C1353.8 355.612 1353.5 354.316 1352.9 353.212C1352.3 352.108 1351.49 351.268 1350.45 350.692C1349.45 350.092 1348.33 349.792 1347.11 349.792C1345.88 349.792 1344.77 350.08 1343.76 350.656C1342.75 351.232 1341.95 352.072 1341.35 353.176C1340.75 354.28 1340.45 355.576 1340.45 357.064C1340.45 358.576 1340.75 359.896 1341.35 361.024C1341.95 362.128 1342.75 362.98 1343.76 363.58C1344.77 364.156 1345.88 364.444 1347.11 364.444C1348.33 364.444 1349.45 364.156 1350.45 363.58C1351.49 362.98 1352.3 362.128 1352.9 361.024C1353.5 359.896 1353.8 358.588 1353.8 357.1ZM640.116 417.976L646.236 401.272H649.728L641.988 421H638.172L630.432 401.272H633.96L640.116 417.976ZM670.952 410.38C670.952 411.004 670.916 411.664 670.844 412.36H655.076C655.196 414.304 655.856 415.828 657.056 416.932C658.28 418.012 659.756 418.552 661.484 418.552C662.9 418.552 664.076 418.228 665.012 417.58C665.972 416.908 666.644 416.02 667.028 414.916H670.556C670.028 416.812 668.972 418.36 667.388 419.56C665.804 420.736 663.836 421.324 661.484 421.324C659.612 421.324 657.932 420.904 656.444 420.064C654.98 419.224 653.828 418.036 652.988 416.5C652.148 414.94 651.728 413.14 651.728 411.1C651.728 409.06 652.136 407.272 652.952 405.736C653.768 404.2 654.908 403.024 656.372 402.208C657.86 401.368 659.564 400.948 661.484 400.948C663.356 400.948 665.012 401.356 666.452 402.172C667.892 402.988 668.996 404.116 669.764 405.556C670.556 406.972 670.952 408.58 670.952 410.38ZM667.568 409.696C667.568 408.448 667.292 407.38 666.74 406.492C666.188 405.58 665.432 404.896 664.472 404.44C663.536 403.96 662.492 403.72 661.34 403.72C659.684 403.72 658.268 404.248 657.092 405.304C655.94 406.36 655.28 407.824 655.112 409.696H667.568ZM678.552 404.476C679.128 403.348 679.944 402.472 681 401.848C682.08 401.224 683.388 400.912 684.924 400.912V404.296H684.06C680.388 404.296 678.552 406.288 678.552 410.272V421H675.276V401.272H678.552V404.476ZM695.69 421.324C694.178 421.324 692.822 421.072 691.622 420.568C690.422 420.04 689.474 419.32 688.778 418.408C688.082 417.472 687.698 416.404 687.626 415.204H691.01C691.106 416.188 691.562 416.992 692.378 417.616C693.218 418.24 694.31 418.552 695.654 418.552C696.902 418.552 697.886 418.276 698.606 417.724C699.326 417.172 699.686 416.476 699.686 415.636C699.686 414.772 699.302 414.136 698.534 413.728C697.766 413.296 696.578 412.876 694.97 412.468C693.506 412.084 692.306 411.7 691.37 411.316C690.458 410.908 689.666 410.32 688.994 409.552C688.346 408.76 688.022 407.728 688.022 406.456C688.022 405.448 688.322 404.524 688.922 403.684C689.522 402.844 690.374 402.184 691.478 401.704C692.582 401.2 693.842 400.948 695.258 400.948C697.442 400.948 699.206 401.5 700.55 402.604C701.894 403.708 702.614 405.22 702.71 407.14H699.434C699.362 406.108 698.942 405.28 698.174 404.656C697.43 404.032 696.422 403.72 695.15 403.72C693.974 403.72 693.038 403.972 692.342 404.476C691.646 404.98 691.298 405.64 691.298 406.456C691.298 407.104 691.502 407.644 691.91 408.076C692.342 408.484 692.87 408.82 693.494 409.084C694.142 409.324 695.03 409.6 696.158 409.912C697.574 410.296 698.726 410.68 699.614 411.064C700.502 411.424 701.258 411.976 701.882 412.72C702.53 413.464 702.866 414.436 702.89 415.636C702.89 416.716 702.59 417.688 701.99 418.552C701.39 419.416 700.538 420.1 699.434 420.604C698.354 421.084 697.106 421.324 695.69 421.324ZM709.206 398.068C708.582 398.068 708.054 397.852 707.622 397.42C707.19 396.988 706.974 396.46 706.974 395.836C706.974 395.212 707.19 394.684 707.622 394.252C708.054 393.82 708.582 393.604 709.206 393.604C709.806 393.604 710.31 393.82 710.718 394.252C711.15 394.684 711.366 395.212 711.366 395.836C711.366 396.46 711.15 396.988 710.718 397.42C710.31 397.852 709.806 398.068 709.206 398.068ZM710.79 401.272V421H707.514V401.272H710.79ZM724.978 421.324C723.13 421.324 721.45 420.904 719.938 420.064C718.45 419.224 717.274 418.036 716.41 416.5C715.57 414.94 715.15 413.14 715.15 411.1C715.15 409.084 715.582 407.308 716.446 405.772C717.334 404.212 718.534 403.024 720.046 402.208C721.558 401.368 723.25 400.948 725.122 400.948C726.994 400.948 728.686 401.368 730.198 402.208C731.71 403.024 732.898 404.2 733.762 405.736C734.65 407.272 735.094 409.06 735.094 411.1C735.094 413.14 734.638 414.94 733.726 416.5C732.838 418.036 731.626 419.224 730.09 420.064C728.554 420.904 726.85 421.324 724.978 421.324ZM724.978 418.444C726.154 418.444 727.258 418.168 728.29 417.616C729.322 417.064 730.15 416.236 730.774 415.132C731.422 414.028 731.746 412.684 731.746 411.1C731.746 409.516 731.434 408.172 730.81 407.068C730.186 405.964 729.37 405.148 728.362 404.62C727.354 404.068 726.262 403.792 725.086 403.792C723.886 403.792 722.782 404.068 721.774 404.62C720.79 405.148 719.998 405.964 719.398 407.068C718.798 408.172 718.498 409.516 718.498 411.1C718.498 412.708 718.786 414.064 719.362 415.168C719.962 416.272 720.754 417.1 721.738 417.652C722.722 418.18 723.802 418.444 724.978 418.444ZM749.013 400.912C751.413 400.912 753.357 401.644 754.845 403.108C756.333 404.548 757.077 406.636 757.077 409.372V421H753.837V409.84C753.837 407.872 753.345 406.372 752.361 405.34C751.377 404.284 750.033 403.756 748.329 403.756C746.601 403.756 745.221 404.296 744.189 405.376C743.181 406.456 742.677 408.028 742.677 410.092V421H739.401V401.272H742.677V404.08C743.325 403.072 744.201 402.292 745.305 401.74C746.433 401.188 747.669 400.912 749.013 400.912ZM769.412 421.324C767.9 421.324 766.544 421.072 765.344 420.568C764.144 420.04 763.196 419.32 762.5 418.408C761.804 417.472 761.42 416.404 761.348 415.204H764.732C764.828 416.188 765.284 416.992 766.1 417.616C766.94 418.24 768.032 418.552 769.376 418.552C770.624 418.552 771.608 418.276 772.328 417.724C773.048 417.172 773.408 416.476 773.408 415.636C773.408 414.772 773.024 414.136 772.256 413.728C771.488 413.296 770.3 412.876 768.692 412.468C767.228 412.084 766.028 411.7 765.092 411.316C764.18 410.908 763.388 410.32 762.716 409.552C762.068 408.76 761.744 407.728 761.744 406.456C761.744 405.448 762.044 404.524 762.644 403.684C763.244 402.844 764.096 402.184 765.2 401.704C766.304 401.2 767.564 400.948 768.98 400.948C771.164 400.948 772.928 401.5 774.272 402.604C775.616 403.708 776.336 405.22 776.432 407.14H773.156C773.084 406.108 772.664 405.28 771.896 404.656C771.152 404.032 770.144 403.72 768.872 403.72C767.696 403.72 766.76 403.972 766.064 404.476C765.368 404.98 765.02 405.64 765.02 406.456C765.02 407.104 765.224 407.644 765.632 408.076C766.064 408.484 766.592 408.82 767.216 409.084C767.864 409.324 768.752 409.6 769.88 409.912C771.296 410.296 772.448 410.68 773.336 411.064C774.224 411.424 774.98 411.976 775.604 412.72C776.252 413.464 776.588 414.436 776.612 415.636C776.612 416.716 776.312 417.688 775.712 418.552C775.112 419.416 774.26 420.1 773.156 420.604C772.076 421.084 770.828 421.324 769.412 421.324ZM799.439 421.324C797.591 421.324 795.911 420.904 794.399 420.064C792.911 419.224 791.735 418.036 790.871 416.5C790.031 414.94 789.611 413.14 789.611 411.1C789.611 409.084 790.043 407.308 790.907 405.772C791.795 404.212 792.995 403.024 794.507 402.208C796.019 401.368 797.711 400.948 799.583 400.948C801.455 400.948 803.147 401.368 804.659 402.208C806.171 403.024 807.359 404.2 808.223 405.736C809.111 407.272 809.555 409.06 809.555 411.1C809.555 413.14 809.099 414.94 808.187 416.5C807.299 418.036 806.087 419.224 804.551 420.064C803.015 420.904 801.311 421.324 799.439 421.324ZM799.439 418.444C800.615 418.444 801.719 418.168 802.751 417.616C803.783 417.064 804.611 416.236 805.235 415.132C805.883 414.028 806.207 412.684 806.207 411.1C806.207 409.516 805.895 408.172 805.271 407.068C804.647 405.964 803.831 405.148 802.823 404.62C801.815 404.068 800.723 403.792 799.547 403.792C798.347 403.792 797.243 404.068 796.235 404.62C795.251 405.148 794.459 405.964 793.859 407.068C793.259 408.172 792.959 409.516 792.959 411.1C792.959 412.708 793.247 414.064 793.823 415.168C794.423 416.272 795.215 417.1 796.199 417.652C797.183 418.18 798.263 418.444 799.439 418.444ZM821.89 403.972H817.75V421H814.474V403.972H811.918V401.272H814.474V399.868C814.474 397.66 815.038 396.052 816.166 395.044C817.318 394.012 819.154 393.496 821.674 393.496V396.232C820.234 396.232 819.214 396.52 818.614 397.096C818.038 397.648 817.75 398.572 817.75 399.868V401.272H821.89V403.972ZM838.583 418.336H847.367V421H835.307V395.908H838.583V418.336ZM859.45 421.324C857.602 421.324 855.922 420.904 854.41 420.064C852.922 419.224 851.746 418.036 850.882 416.5C850.042 414.94 849.622 413.14 849.622 411.1C849.622 409.084 850.054 407.308 850.918 405.772C851.806 404.212 853.006 403.024 854.518 402.208C856.03 401.368 857.722 400.948 859.594 400.948C861.466 400.948 863.158 401.368 864.67 402.208C866.182 403.024 867.37 404.2 868.234 405.736C869.122 407.272 869.566 409.06 869.566 411.1C869.566 413.14 869.11 414.94 868.198 416.5C867.31 418.036 866.098 419.224 864.562 420.064C863.026 420.904 861.322 421.324 859.45 421.324ZM859.45 418.444C860.626 418.444 861.73 418.168 862.762 417.616C863.794 417.064 864.622 416.236 865.246 415.132C865.894 414.028 866.218 412.684 866.218 411.1C866.218 409.516 865.906 408.172 865.282 407.068C864.658 405.964 863.842 405.148 862.834 404.62C861.826 404.068 860.734 403.792 859.558 403.792C858.358 403.792 857.254 404.068 856.246 404.62C855.262 405.148 854.47 405.964 853.87 407.068C853.27 408.172 852.97 409.516 852.97 411.1C852.97 412.708 853.258 414.064 853.834 415.168C854.434 416.272 855.226 417.1 856.21 417.652C857.194 418.18 858.274 418.444 859.45 418.444ZM877.15 404.476C877.726 403.348 878.542 402.472 879.598 401.848C880.678 401.224 881.986 400.912 883.522 400.912V404.296H882.658C878.986 404.296 877.15 406.288 877.15 410.272V421H873.874V401.272H877.15V404.476ZM905.303 410.38C905.303 411.004 905.267 411.664 905.195 412.36H889.427C889.547 414.304 890.207 415.828 891.407 416.932C892.631 418.012 894.107 418.552 895.835 418.552C897.251 418.552 898.427 418.228 899.363 417.58C900.323 416.908 900.995 416.02 901.379 414.916H904.907C904.379 416.812 903.323 418.36 901.739 419.56C900.155 420.736 898.187 421.324 895.835 421.324C893.963 421.324 892.283 420.904 890.795 420.064C889.331 419.224 888.179 418.036 887.339 416.5C886.499 414.94 886.079 413.14 886.079 411.1C886.079 409.06 886.487 407.272 887.303 405.736C888.119 404.2 889.259 403.024 890.723 402.208C892.211 401.368 893.915 400.948 895.835 400.948C897.707 400.948 899.363 401.356 900.803 402.172C902.243 402.988 903.347 404.116 904.115 405.556C904.907 406.972 905.303 408.58 905.303 410.38ZM901.919 409.696C901.919 408.448 901.643 407.38 901.091 406.492C900.539 405.58 899.783 404.896 898.823 404.44C897.887 403.96 896.843 403.72 895.691 403.72C894.035 403.72 892.619 404.248 891.443 405.304C890.291 406.36 889.631 407.824 889.463 409.696H901.919ZM933.351 400.912C934.887 400.912 936.255 401.236 937.455 401.884C938.655 402.508 939.603 403.456 940.299 404.728C940.995 406 941.343 407.548 941.343 409.372V421H938.103V409.84C938.103 407.872 937.611 406.372 936.627 405.34C935.667 404.284 934.359 403.756 932.703 403.756C930.999 403.756 929.643 404.308 928.635 405.412C927.627 406.492 927.123 408.064 927.123 410.128V421H923.883V409.84C923.883 407.872 923.391 406.372 922.407 405.34C921.447 404.284 920.139 403.756 918.483 403.756C916.779 403.756 915.423 404.308 914.415 405.412C913.407 406.492 912.903 408.064 912.903 410.128V421H909.627V401.272H912.903V404.116C913.551 403.084 914.415 402.292 915.495 401.74C916.599 401.188 917.811 400.912 919.131 400.912C920.787 400.912 922.251 401.284 923.523 402.028C924.795 402.772 925.743 403.864 926.367 405.304C926.919 403.912 927.831 402.832 929.103 402.064C930.375 401.296 931.791 400.912 933.351 400.912ZM959.591 395.908V421H956.315V395.908H959.591ZM968.45 404.908C969.098 403.78 970.058 402.844 971.33 402.1C972.626 401.332 974.126 400.948 975.83 400.948C977.582 400.948 979.166 401.368 980.582 402.208C982.022 403.048 983.15 404.236 983.966 405.772C984.782 407.284 985.19 409.048 985.19 411.064C985.19 413.056 984.782 414.832 983.966 416.392C983.15 417.952 982.022 419.164 980.582 420.028C979.166 420.892 977.582 421.324 975.83 421.324C974.15 421.324 972.662 420.952 971.366 420.208C970.094 419.44 969.122 418.492 968.45 417.364V430.36H965.174V401.272H968.45V404.908ZM981.842 411.064C981.842 409.576 981.542 408.28 980.942 407.176C980.342 406.072 979.526 405.232 978.494 404.656C977.486 404.08 976.37 403.792 975.146 403.792C973.946 403.792 972.83 404.092 971.798 404.692C970.79 405.268 969.974 406.12 969.35 407.248C968.75 408.352 968.45 409.636 968.45 411.1C968.45 412.588 968.75 413.896 969.35 415.024C969.974 416.128 970.79 416.98 971.798 417.58C972.83 418.156 973.946 418.444 975.146 418.444C976.37 418.444 977.486 418.156 978.494 417.58C979.526 416.98 980.342 416.128 980.942 415.024C981.542 413.896 981.842 412.576 981.842 411.064ZM996.486 421.324C994.974 421.324 993.618 421.072 992.418 420.568C991.218 420.04 990.27 419.32 989.574 418.408C988.878 417.472 988.494 416.404 988.422 415.204H991.806C991.902 416.188 992.358 416.992 993.174 417.616C994.014 418.24 995.106 418.552 996.45 418.552C997.698 418.552 998.682 418.276 999.402 417.724C1000.12 417.172 1000.48 416.476 1000.48 415.636C1000.48 414.772 1000.1 414.136 999.33 413.728C998.562 413.296 997.374 412.876 995.766 412.468C994.302 412.084 993.102 411.7 992.166 411.316C991.254 410.908 990.462 410.32 989.79 409.552C989.142 408.76 988.818 407.728 988.818 406.456C988.818 405.448 989.118 404.524 989.718 403.684C990.318 402.844 991.17 402.184 992.274 401.704C993.378 401.2 994.638 400.948 996.054 400.948C998.238 400.948 1000 401.5 1001.35 402.604C1002.69 403.708 1003.41 405.22 1003.51 407.14H1000.23C1000.16 406.108 999.738 405.28 998.97 404.656C998.226 404.032 997.218 403.72 995.946 403.72C994.77 403.72 993.834 403.972 993.138 404.476C992.442 404.98 992.094 405.64 992.094 406.456C992.094 407.104 992.298 407.644 992.706 408.076C993.138 408.484 993.666 408.82 994.29 409.084C994.938 409.324 995.826 409.6 996.954 409.912C998.37 410.296 999.522 410.68 1000.41 411.064C1001.3 411.424 1002.05 411.976 1002.68 412.72C1003.33 413.464 1003.66 414.436 1003.69 415.636C1003.69 416.716 1003.39 417.688 1002.79 418.552C1002.19 419.416 1001.33 420.1 1000.23 420.604C999.15 421.084 997.902 421.324 996.486 421.324ZM1025.81 401.272V421H1022.53V418.084C1021.91 419.092 1021.03 419.884 1019.9 420.46C1018.8 421.012 1017.58 421.288 1016.23 421.288C1014.7 421.288 1013.32 420.976 1012.09 420.352C1010.87 419.704 1009.9 418.744 1009.18 417.472C1008.48 416.2 1008.13 414.652 1008.13 412.828V401.272H1011.37V412.396C1011.37 414.34 1011.86 415.84 1012.85 416.896C1013.83 417.928 1015.18 418.444 1016.88 418.444C1018.63 418.444 1020.01 417.904 1021.02 416.824C1022.03 415.744 1022.53 414.172 1022.53 412.108V401.272H1025.81ZM1055.06 400.912C1056.6 400.912 1057.97 401.236 1059.17 401.884C1060.37 402.508 1061.31 403.456 1062.01 404.728C1062.71 406 1063.05 407.548 1063.05 409.372V421H1059.81V409.84C1059.81 407.872 1059.32 406.372 1058.34 405.34C1057.38 404.284 1056.07 403.756 1054.41 403.756C1052.71 403.756 1051.35 404.308 1050.35 405.412C1049.34 406.492 1048.83 408.064 1048.83 410.128V421H1045.59V409.84C1045.59 407.872 1045.1 406.372 1044.12 405.34C1043.16 404.284 1041.85 403.756 1040.19 403.756C1038.49 403.756 1037.13 404.308 1036.13 405.412C1035.12 406.492 1034.61 408.064 1034.61 410.128V421H1031.34V401.272H1034.61V404.116C1035.26 403.084 1036.13 402.292 1037.21 401.74C1038.31 401.188 1039.52 400.912 1040.84 400.912C1042.5 400.912 1043.96 401.284 1045.23 402.028C1046.51 402.772 1047.45 403.864 1048.08 405.304C1048.63 403.912 1049.54 402.832 1050.81 402.064C1052.09 401.296 1053.5 400.912 1055.06 400.912ZM1069.47 421.216C1068.85 421.216 1068.32 421 1067.89 420.568C1067.46 420.136 1067.24 419.608 1067.24 418.984C1067.24 418.36 1067.46 417.832 1067.89 417.4C1068.32 416.968 1068.85 416.752 1069.47 416.752C1070.07 416.752 1070.58 416.968 1070.98 417.4C1071.42 417.832 1071.63 418.36 1071.63 418.984C1071.63 419.608 1071.42 420.136 1070.98 420.568C1070.58 421 1070.07 421.216 1069.47 421.216Z" fill="black"/>
</g>
</g>
<defs>
<clipPath id="clip0">
<rect width="651.309" height="445.031" transform="matrix(-0.979102 -0.203372 -0.203372 0.979102 677.205 132.458)" fill="white"/>
</clipPath>
</defs>
</svg>
