<svg width="755" height="524" viewBox="0 0 755 524" fill="none" xmlns="http://www.w3.org/2000/svg">
<g clip-path="url(#clip0)">
<path d="M807.176 400.601L765.841 348.862L807.963 406.707L808.788 413.092C811.228 412.754 813.635 412.352 816.009 411.886L802.856 330.177L802.812 329.538L802.734 329.425L801.489 321.704L829.553 255.737L800.719 315.902L800.819 317.557L790.882 255.823L813.65 188.362L789.266 244.958L771.6 116.629L771.539 116.202L771.587 116.624L783.675 218.035L749.132 181.209L784.802 226.759L791.944 282.237L757.876 232.086L792.989 290.393L796.96 321.242L747.881 251.622L798.351 332.003L807.176 400.601Z" fill="#D0CDE1"/>
<path d="M296.451 224.663L306.083 223.448L314.984 293.964L305.353 295.18L296.451 224.663Z" fill="#3F3D56"/>
<path d="M633.892 29.6053L638.676 38.3508L301.103 232.517L296.319 223.771L633.892 29.6053Z" fill="#3F3D56"/>
<path d="M51.1118 505.525C69.2734 529.342 852.139 428.325 847.98 404.931C829.819 381.116 46.9534 482.132 51.1118 505.525Z" fill="#D0CDE1"/>
<path d="M136.203 389.182L219.994 378.604L224.257 412.373L140.465 422.95L136.203 389.182Z" fill="#3F3D56"/>
<path d="M147.669 418.005L560.848 365.847L565.612 403.588L152.433 455.746L147.669 418.005Z" fill="#3F3D56"/>
<path d="M217.951 428.304L317.153 415.781L300.917 287.163L226.756 296.525L209.903 364.554L217.951 428.304Z" fill="#D0CDE1"/>
<path d="M244.132 302.403L286.51 297.054L292.026 340.754L249.649 346.104L244.132 302.403Z" fill="white"/>
<path d="M217.929 350.613L244.896 347.209L239.379 303.508L227.822 304.967L217.929 350.613Z" fill="white"/>
<path d="M283.603 367.043L293.234 365.827L295.617 384.698L285.985 385.914L283.603 367.043Z" fill="#3F3D56"/>
<path d="M234.703 332.351L234.222 332.412C231.795 332.718 229.593 334.006 228.101 335.992C226.608 337.978 225.947 340.5 226.263 343.002V343.002C226.579 345.504 227.846 347.783 229.785 349.335C231.724 350.888 234.177 351.589 236.604 351.282L237.085 351.221L234.703 332.351Z" fill="#3F3D56"/>
<path d="M602.262 360.619L601.781 360.68C599.354 360.986 597.152 362.274 595.66 364.26C594.167 366.246 593.506 368.768 593.822 371.27V371.27C594.138 373.773 595.405 376.051 597.344 377.604C599.283 379.157 601.736 379.857 604.163 379.55L604.644 379.49L602.262 360.619Z" fill="#3F3D56"/>
<path d="M177.026 414.154C162.349 416.007 150.073 425.005 142.388 437.843L123.565 440.219L135.229 385.343L218.277 357.248L224.693 427.453L216.465 428.492C205.83 417.967 191.703 412.301 177.026 414.154Z" fill="#D0CDE1"/>
<path d="M185.484 488.907C162.346 491.828 141.147 474.853 138.134 450.992C135.122 427.132 151.438 405.421 174.576 402.5C197.715 399.579 218.914 416.554 221.926 440.415C224.938 464.276 208.622 485.987 185.484 488.907Z" fill="#3F3D56"/>
<path d="M182.901 468.443C170.723 469.98 159.565 461.046 157.98 448.487C156.395 435.929 164.982 424.502 177.16 422.965C189.338 421.428 200.496 430.362 202.081 442.92C203.666 455.478 195.079 466.905 182.901 468.443Z" fill="#D0CDE1"/>
<path d="M563.928 440.63C543.716 443.182 525.197 428.353 522.566 407.509C519.934 386.665 534.187 367.699 554.4 365.148C574.613 362.596 593.132 377.425 595.763 398.269C598.394 419.113 584.141 438.078 563.928 440.63Z" fill="#3F3D56"/>
<path d="M561.672 422.753C551.033 424.096 541.287 416.291 539.902 405.32C538.517 394.35 546.018 384.368 556.657 383.025C567.295 381.682 577.042 389.487 578.426 400.457C579.811 411.428 572.31 421.41 561.672 422.753Z" fill="#D0CDE1"/>
<path d="M295.771 269.651L315.996 267.097L334.99 417.566L314.765 420.119L295.771 269.651Z" fill="#3F3D56"/>
<path d="M311.317 392.806L602.18 356.089L603.308 365.028L312.445 401.745L311.317 392.806Z" fill="#3F3D56"/>
<path d="M433.538 320.294L761.978 369.245L760.791 378.157L432.351 329.207L433.538 320.294Z" fill="#3F3D56"/>
<path d="M456.558 328.403L462.51 331.834L435.052 382.872L429.1 379.441L456.558 328.403Z" fill="#3F3D56"/>
<path d="M231.181 350.958L240.812 349.742L241.314 353.715L231.683 354.93L231.181 350.958Z" fill="#3F3D56"/>
<path d="M319.697 370.054L445.866 354.127C446.098 354.098 446.31 353.984 446.466 353.806C446.621 353.627 446.708 353.397 446.712 353.157C446.715 352.916 446.634 352.682 446.484 352.497C446.334 352.311 446.125 352.187 445.894 352.148L317.85 329.969C317.708 329.944 317.561 329.952 317.423 329.993C317.284 330.034 317.156 330.107 317.048 330.205C316.94 330.304 316.856 330.426 316.8 330.564C316.744 330.701 316.719 330.849 316.727 330.998L318.602 369.104C318.608 369.242 318.643 369.377 318.703 369.501C318.763 369.625 318.847 369.735 318.95 369.824C319.052 369.914 319.172 369.98 319.301 370.02C319.429 370.059 319.564 370.071 319.697 370.054V370.054ZM438.987 352.978L320.489 367.936L318.727 332.147L438.987 352.978Z" fill="#3F3D56"/>
<path d="M655.839 283.225L655.848 283.224L683.462 279.465C683.597 279.446 683.727 279.399 683.842 279.326C683.958 279.252 684.057 279.155 684.133 279.039C684.209 278.924 684.261 278.793 684.285 278.655C684.308 278.517 684.304 278.375 684.271 278.239L653.588 150.791C653.53 150.552 653.389 150.342 653.192 150.202C652.995 150.062 652.756 150.001 652.519 150.031L652.515 150.032C652.278 150.063 652.061 150.183 651.906 150.369C651.751 150.556 651.668 150.795 651.674 151.041L654.742 282.248C654.745 282.388 654.777 282.527 654.836 282.654C654.894 282.781 654.978 282.894 655.081 282.986C655.185 283.078 655.305 283.147 655.436 283.188C655.566 283.229 655.704 283.242 655.839 283.225V283.225ZM682.125 277.626L656.658 281.092L653.828 160.089L682.125 277.626Z" fill="#3F3D56"/>
<path d="M131.257 404.555L131.73 404.674C134.111 405.272 136.619 404.874 138.701 403.565C140.783 402.257 142.269 400.146 142.832 397.697V397.697C143.395 395.248 142.989 392.662 141.703 390.507C140.417 388.352 138.357 386.805 135.975 386.206L135.503 386.087L131.257 404.555Z" fill="#3F3D56"/>
<path d="M717.831 336.393L745.676 340.756L745.037 345.304L717.192 340.941L717.831 336.393Z" fill="#3F3D56"/>
<path d="M516.347 305.983L521.901 308.248L740.241 342.461L742.863 338.06C747.417 330.519 749.837 321.807 749.852 312.896C749.821 306.247 748.367 299.418 743.407 295.777L743.006 227.848L622.231 208.764L570.067 240.26C570.067 240.26 548.076 236.41 533.952 249.885C529.482 254.153 525.798 260.158 523.857 268.579L522.268 276.488L516.347 305.983Z" fill="#6C63FF"/>
<path d="M567.979 340.217C553.06 342.1 539.392 331.155 537.449 315.771C535.507 300.386 546.027 286.388 560.946 284.504C575.865 282.621 589.533 293.566 591.475 308.951C593.418 324.335 582.898 338.334 567.979 340.217Z" fill="#3F3D56"/>
<path d="M566.313 327.022C558.461 328.013 551.267 322.252 550.245 314.155C549.223 306.058 554.759 298.69 562.611 297.699C570.463 296.708 577.657 302.469 578.679 310.566C579.702 318.663 574.165 326.03 566.313 327.022Z" fill="#D0CDE1"/>
<path d="M701.016 361.063C686.097 362.947 672.429 352.002 670.487 336.617C668.545 321.232 679.064 307.234 693.983 305.351C708.902 303.467 722.57 314.412 724.513 329.797C726.455 345.182 715.935 359.18 701.016 361.063Z" fill="#3F3D56"/>
<path d="M699.35 347.868C691.498 348.859 684.304 343.099 683.282 335.002C682.26 326.904 687.797 319.537 695.649 318.546C703.501 317.555 710.695 323.315 711.717 331.412C712.739 339.509 707.202 346.877 699.35 347.868Z" fill="#D0CDE1"/>
<path d="M589.269 238.621L675.898 252.195L679.665 225.361L624.417 216.703L589.269 238.621Z" fill="white"/>
<path d="M690.272 227.022L724.747 232.425L720.98 259.259L686.505 253.857L690.272 227.022Z" fill="white"/>
<path d="M668.669 271.515L673.088 272.208L671.875 280.849L667.455 280.157L668.669 271.515Z" fill="#3F3D56"/>
<path d="M596.826 252.355L597.465 247.807L605.863 249.123L605.224 253.671L596.826 252.355Z" fill="#3F3D56"/>
<path d="M605.157 231.628L604.671 231.552C602.221 231.168 599.73 231.801 597.748 233.312C595.765 234.823 594.453 237.089 594.099 239.61C593.745 242.131 594.378 244.701 595.861 246.755C597.343 248.81 599.552 250.179 602.002 250.563L602.488 250.639L605.157 231.628Z" fill="#3F3D56"/>
<path d="M522.268 276.488C525.558 277.384 529.041 277.057 532.103 275.565C535.165 274.074 537.609 271.513 539.005 268.333C540.402 265.154 540.661 261.561 539.736 258.186C538.812 254.811 536.764 251.871 533.952 249.885C529.482 254.153 525.798 260.158 523.857 268.579L522.268 276.488Z" fill="#3F3D56"/>
<path d="M632.912 29.8288L642.543 28.613L660.848 173.619L651.217 174.834L632.912 29.8288Z" fill="#3F3D56"/>
<path d="M640.109 48.0915C632.662 49.0316 625.84 43.5683 624.87 35.889C623.901 28.2096 629.152 21.2222 636.599 20.2822C644.046 19.3421 650.868 24.8054 651.838 32.4847C652.807 40.1641 647.556 47.1515 640.109 48.0915Z" fill="#3F3D56"/>
<path d="M303.273 239.946C295.826 240.887 289.003 235.423 288.034 227.744C287.065 220.065 292.316 213.077 299.762 212.137C307.209 211.197 314.032 216.66 315.001 224.34C315.971 232.019 310.72 239.006 303.273 239.946Z" fill="#3F3D56"/>
</g>
<defs>
<clipPath id="clip0">
<rect width="803.597" height="426.716" transform="matrix(-0.992126 0.125241 0.125241 0.992126 797.27 0)" fill="white"/>
</clipPath>
</defs>
</svg>
