<svg id="Capa_1" enable-background="new 0 0 512.007 512.007" height="512" viewBox="0 0 512.007 512.007" width="512" xmlns="http://www.w3.org/2000/svg"><g><path d="m458.326 270.928h38.503c8.284 0 15-6.716 15-15s-6.716-15-15-15h-37.872l47.865-42.761c6.178-5.519 6.712-15.001 1.193-21.18-5.519-6.177-15.001-6.712-21.18-1.192l-72.908 65.133h-29.913l46.317-41.372c4.732-4.228 6.293-10.978 3.896-16.854s-8.196-9.593-14.575-9.317l-63.035 2.886 20.542-20.542 101.352-3.031c8.28-.248 14.793-7.161 14.545-15.441-.243-8.128-6.908-14.552-14.984-14.552-.152 0-.305.002-.457.007l-69.517 2.079 28.517-28.517c5.858-5.858 5.858-15.355 0-21.213-5.857-5.858-15.355-5.858-21.213 0l-26.813 26.813 4.502-63.017c.59-8.263-5.63-15.44-13.893-16.031-8.267-.592-15.441 5.63-16.031 13.893l-6.969 97.545-20.359 20.359 3.497-62.005c.357-6.337-3.313-12.212-9.163-14.672s-12.614-.971-16.894 3.716l-42.532 46.608v-30.278l66.103-72.438c5.584-6.119 5.15-15.607-.969-21.191-6.12-5.584-15.607-5.15-21.191.969l-43.942 48.154v-38.343c0-8.284-6.716-15-15-15s-15 6.716-15 15v37.729l-42.761-47.865c-5.52-6.178-15.002-6.712-21.18-1.193s-6.712 15.001-1.193 21.179l65.134 72.909v29.754l-41.373-46.312c-4.228-4.733-10.979-6.292-16.854-3.895-5.877 2.398-9.607 8.234-9.317 14.574l2.886 63.036-20.542-20.542-3.029-101.521c-.247-8.281-7.153-14.824-15.44-14.546-8.28.247-14.793 7.16-14.546 15.44l2.079 69.691-28.52-28.52c-5.857-5.858-15.355-5.858-21.213 0s-5.858 15.355 0 21.213l26.821 26.821-63.328-4.512c-8.277-.591-15.439 5.632-16.028 13.896-.589 8.263 5.633 15.439 13.895 16.028l97.844 6.971 20.358 20.359-62.005-3.496c-6.34-.357-12.213 3.312-14.672 9.163-2.46 5.851-.972 12.616 3.717 16.894l46.61 42.532h-30.307l-72.5-66.108c-6.119-5.58-15.607-5.145-21.19.977-5.582 6.122-5.144 15.609.978 21.191l48.189 43.94h-38.084c-8.284 0-15 6.716-15 15s6.716 15 15 15h37.467l-47.456 42.361c-6.18 5.517-6.718 14.999-1.201 21.179 2.964 3.319 7.07 5.011 11.195 5.011 3.555 0 7.124-1.256 9.984-3.81l72.527-64.742h29.784l-46.314 41.373c-4.733 4.228-6.293 10.977-3.896 16.853s8.257 9.612 14.574 9.317l63.036-2.886-20.549 20.549-97.719 3.02c-8.281.256-14.786 7.176-14.53 15.456.256 8.281 7.224 14.789 15.456 14.529l65.822-2.034-28.478 28.478c-5.858 5.858-5.858 15.355 0 21.213 2.929 2.929 6.768 4.394 10.607 4.394s7.678-1.465 10.606-4.394l26.822-26.822-4.511 63.333c-.589 8.264 5.633 15.439 13.896 16.028.363.026.723.039 1.081.039 7.799 0 14.384-6.035 14.946-13.935l6.97-97.847 20.358-20.358-3.497 62.006c-.357 6.337 3.314 12.214 9.165 14.673 5.854 2.458 12.618.968 16.896-3.722l42.528-46.64v30.407l-66.106 72.498c-5.582 6.122-5.145 15.609.977 21.191 2.876 2.623 6.494 3.916 10.102 3.916 4.07 0 8.129-1.648 11.088-4.893l43.939-48.187v38.232c0 8.284 6.716 15 15 15s15-6.716 15-15v-37.616l42.757 47.898c2.964 3.32 7.07 5.011 11.195 5.011 3.555 0 7.124-1.256 9.984-3.81 6.18-5.517 6.718-14.999 1.201-21.179l-65.138-72.97v-29.882l41.368 46.343c2.907 3.256 7.006 5.012 11.194 5.012 1.902 0 3.825-.362 5.661-1.111 5.877-2.397 9.609-8.234 9.319-14.575l-2.887-63.036 20.549 20.549 3.143 101.529c.252 8.122 6.915 14.536 14.984 14.536.157 0 .315-.002.473-.007 8.28-.256 14.785-7.177 14.529-15.457l-2.156-69.626 28.475 28.475c2.929 2.929 6.768 4.394 10.606 4.394 3.839 0 7.678-1.464 10.607-4.394 5.858-5.858 5.858-15.355 0-21.213l-26.822-26.822 63.333 4.511c.363.026.723.039 1.081.039 7.799 0 14.384-6.035 14.946-13.935.589-8.264-5.633-15.44-13.897-16.028l-97.846-6.969-20.358-20.358 62.006 3.496c6.344.356 12.213-3.311 14.673-9.163 2.459-5.851.971-12.616-3.718-16.894l-46.614-42.532h30.435l72.882 66.546c2.877 2.627 6.499 3.923 10.11 3.923 4.067 0 8.122-1.645 11.081-4.886 5.586-6.118 5.154-15.605-.963-21.191zm-79.439-65.645-39.906 35.646h-47.021l33.185-33.184zm-71.878-72.243-3.014 53.427-33.248 33.248v-46.939zm-101.908-.256 35.646 39.901v47.031l-33.185-33.185zm-72.24 71.883 53.424 3.012 33.249 33.249h-46.936zm-.256 101.907 39.903-35.646h47.027l-33.185 33.185zm71.882 72.218 3.011-53.402 33.249-33.249v46.884zm101.904.255-35.644-39.93v-46.974l33.184 33.184zm72.241-71.857-53.423-3.012-33.25-33.25h46.931z"/></g></svg>